<svg width="50" height="50" viewBox="0 0 50 50" fill="none" xmlns="http://www.w3.org/2000/svg">
<path d="M28.1985 39.0667C27.5886 39.4679 26.8663 39.7247 26.096 39.7728C26.0079 39.7808 25.9195 39.7808 25.8314 39.7808C23.7771 39.7808 21.9957 38.3204 21.6266 36.2822C21.2149 34.0412 21.1056 33.8645 17.9755 32.3101C15.6884 31.1867 12.848 29.7824 11.6843 26.6208C8.73134 18.5804 15.6965 14.496 15.7687 14.4559C16.0577 14.2873 16.4186 14.3917 16.5872 14.6805C16.7557 14.9694 16.6513 15.3385 16.3625 15.499C16.1137 15.6435 10.2157 19.1341 12.8158 26.2116C13.8106 28.9158 16.3063 30.1435 18.513 31.2348C21.8721 32.8827 22.3199 33.3628 22.8142 36.0655C23.0869 37.5901 24.4673 38.6895 26.0239 38.5772C26.6657 38.5451 27.2515 38.2963 27.733 37.9192C27.5806 37.3735 27.4925 36.7957 27.4925 36.2019C27.4925 33.4095 29.667 30.3281 31.5607 28.1856C31.1836 27.5918 30.7663 27.022 30.3088 26.4764L29.8114 26.9739C28.712 28.0732 27.3158 28.8035 25.7832 29.0843L23.3678 29.5096C21.5155 29.8024 20.1541 28.2171 20.439 26.5807L20.8723 24.1654C21.145 22.6407 21.8672 21.2445 22.9746 20.1371L30.9669 12.1448C28.9688 5.34817 22.5092 0.469374 15.0065 0.838464C6.66902 1.26378 -0.0794201 8.41349 0.000706214 16.7589C0.0649639 22.5926 3.28275 27.664 8.02509 30.3361C11.1387 32.0935 13.1126 35.3273 13.1126 38.8981C13.1126 43.971 16.463 48.6595 21.4581 49.7391C27.2836 51.007 32.5637 47.5083 34.1044 42.3727C31.4497 42.5204 29.2696 41.1092 28.1985 39.0667ZM7.69616 16.6786C7.7042 17.0157 7.43149 17.2885 7.10237 17.2885H7.09433C6.76541 17.2885 6.50054 17.0236 6.49251 16.6947C6.44431 11.8559 10.4886 7.57094 15.3354 7.32218C18.3204 7.16972 21.1772 8.44557 23.0548 10.7727C23.2636 11.0294 23.2234 11.4066 22.9666 11.6152C22.7098 11.8239 22.3246 11.7837 22.116 11.527C20.479 9.50479 18.0076 8.39742 15.3916 8.52584C11.1788 8.73448 7.656 12.4738 7.69616 16.6786Z" fill="white"/>
<path d="M38.7182 16.3659L28.9606 26.1235C28.0379 27.0463 26.8501 27.6642 25.5663 27.8969L23.159 28.3222C22.2522 28.4827 21.4658 27.6963 21.6264 26.7895L22.0598 24.3822C22.2843 23.0983 22.9022 21.9107 23.8251 20.9879L33.5827 11.2302C37.7481 15.3953 35.2223 12.8698 38.7182 16.3659Z" fill="white"/>
<path d="M48.6609 7.53092L45.3226 10.8771L39.0718 4.63408L42.4179 1.28792C44.1272 -0.429308 46.9036 -0.429308 48.6207 1.28792L48.6609 1.32803C50.378 3.04527 50.378 5.82172 48.6609 7.53092Z" fill="white"/>
<path d="M44.6046 11.8677L38.0827 5.34578C36.9411 4.20408 35.09 4.20408 33.9482 5.34578L32.7079 6.58612C32.1371 7.157 32.1371 8.08251 32.7079 8.65334L33.3993 9.34465L35.2436 7.50057C35.4787 7.26548 35.8595 7.26548 36.0946 7.50057C36.3297 7.73566 36.3297 8.1165 36.0946 8.35159L34.2503 10.1957L35.5178 11.4632L37.3621 9.61873C37.5972 9.38364 37.9781 9.38364 38.2131 9.61873C38.4482 9.85382 38.4482 10.2347 38.2131 10.4697L36.3689 12.3143L37.6364 13.5817L39.4807 11.7377C39.7158 11.5026 40.0966 11.5026 40.3317 11.7377C40.5668 11.9728 40.5668 12.3536 40.3317 12.5887L38.4874 14.4328L39.7546 15.7L41.5992 13.8558C41.8343 13.6207 42.2152 13.6207 42.4502 13.8558C42.6853 14.0909 42.6853 14.4718 42.4502 14.7068L40.6056 16.551L41.2971 17.2425C41.868 17.8134 42.7935 17.8134 43.3644 17.2425L44.6046 16.0022C45.7464 14.8605 45.7464 13.0094 44.6046 11.8677Z" fill="white"/>
<path d="M38.6542 36.2005C38.6542 38.9515 36.4286 41.1845 33.6775 41.1845C30.9264 41.1845 28.6934 38.9515 28.6934 36.2005C28.6934 33.6033 31.1174 30.4841 32.5845 28.8341C33.1681 28.1777 34.1865 28.1781 34.7696 28.8349C36.2346 30.4851 38.6542 33.6038 38.6542 36.2005Z" fill="white"/>
</svg>
