<svg width="59" height="50" viewBox="0 0 59 50" fill="none" xmlns="http://www.w3.org/2000/svg">
<path d="M38.9177 22.0364C38.3028 22.0989 3.71051 21.9634 3.04347 22.0364C2.20595 22.1171 1.42902 22.5085 0.865727 23.1336C0.302434 23.7586 -0.00638654 24.5719 0.000100152 25.4133V43.1315C9.17799e-05 44.9495 0.720865 46.6934 2.00444 47.9809C3.28802 49.2684 5.02968 49.9944 6.84768 49.9999H43.2118C45.0298 49.9862 46.7682 49.2522 48.0459 47.9588C49.3236 46.6655 50.0364 44.9183 50.0281 43.1002V33.2406C48.9858 32.1879 40.9918 24.1 38.9177 22.0364ZM10.0265 38.7124V33.3239C10.0265 32.4947 10.356 31.6994 10.9423 31.113C11.5287 30.5266 12.324 30.1972 13.1533 30.1972H36.9583C37.7875 30.1972 38.5828 30.5266 39.1692 31.113C39.7556 31.6994 40.085 32.4947 40.085 33.3239V38.6707C40.085 39.5 39.7556 40.2953 39.1692 40.8816C38.5828 41.468 37.7875 41.7974 36.9583 41.7974H13.1533C12.3258 41.7974 11.5321 41.4694 10.946 40.8853C10.3599 40.3012 10.0293 39.5086 10.0265 38.6811V38.7124Z" fill="white"/>
<path d="M36.9271 20.0353C35.6868 18.8054 33.2792 16.3457 32.0493 15.1367C32.0493 15.1367 5.99309 15.1367 5.71168 15.1367C4.81788 15.1395 3.96163 15.4965 3.3306 16.1295C2.69956 16.7625 2.34521 17.6198 2.34521 18.5136V20.0561C2.68769 19.9828 3.03726 19.9479 3.38746 19.9519L36.9271 20.0353Z" fill="white"/>
<path d="M56.2818 21.9322L37.4483 3.0049C36.108 1.66771 34.2919 0.916748 32.3986 0.916748C30.5053 0.916748 28.6893 1.66771 27.3489 3.0049C26.9065 3.29253 26.5551 3.7 26.3355 4.1798C26.1159 4.6596 26.0372 5.19194 26.1086 5.71475C26.1816 6.55897 27.6824 7.71587 28.1931 8.32037L52.4984 32.7299C52.7029 32.9366 52.9464 33.1007 53.2147 33.2127C53.4831 33.3247 53.771 33.3824 54.0618 33.3824C54.3526 33.3824 54.6405 33.3247 54.9088 33.2127C55.1772 33.1007 55.4206 32.9366 55.6252 32.7299L56.2818 32.0732C57.614 30.7218 58.3608 28.9004 58.3608 27.0027C58.3608 25.105 57.614 23.2836 56.2818 21.9322Z" fill="white"/>
<path d="M36.9581 32.2922H13.1531C12.5775 32.2922 12.1108 32.7589 12.1108 33.3345V38.6812C12.1108 39.2568 12.5775 39.7235 13.1531 39.7235H36.9581C37.5337 39.7235 38.0003 39.2568 38.0003 38.6812V33.3345C38.0003 32.7589 37.5337 32.2922 36.9581 32.2922Z" fill="white"/>
<path d="M4.59642 13.1669C5.55529 12.8959 28.4431 13.1148 29.9752 13.0522L25.2121 8.31001C24.4686 7.55934 24.0272 6.56145 23.9718 5.50636C20.251 5.3396 17.7183 6.5486 14.06 5.68354C11.085 4.85833 8.43816 3.13263 6.48289 0.743274C6.21515 0.446482 5.8732 0.226329 5.49221 0.105435C5.11121 -0.015458 4.7049 -0.0327319 4.31501 0.0553891C1.71981 0.680739 2.0846 5.89199 2.4077 7.90353C2.75578 9.79334 3.50187 11.5875 4.59642 13.1669Z" fill="white"/>
</svg>
