<svg width="32" height="60" viewBox="0 0 32 60" fill="none" xmlns="http://www.w3.org/2000/svg">
<path d="M27.1501 4.8389H20.3194V4.26479C20.3194 1.90978 18.4096 0 16.0546 0C13.6996 0 11.7898 1.90978 11.7898 4.26479V4.8389H4.95912C2.5924 4.8389 0.65918 6.7604 0.65918 9.13884V32.1968C0.65918 37.8207 5.24032 42.4019 10.8642 42.4019H15.1173V43.4329H12.7037C12.1882 43.4329 11.7664 43.8547 11.7664 44.3702C11.7664 44.8858 12.1882 45.3076 12.7037 45.3076H13.1138V47.3579C13.1138 48.6468 13.9456 49.7364 15.1056 50.1347V55.1142C15.1056 56.778 13.7582 58.1254 12.0944 58.1254C10.4307 58.1254 9.08332 56.778 9.08332 55.1142C9.08332 53.4505 10.4307 52.1031 12.0944 52.1031H12.5514C13.0669 52.1031 13.4887 51.6813 13.4887 51.1658C13.4887 50.6503 13.0669 50.2285 12.5514 50.2285H12.0944C9.39966 50.2285 7.20868 52.4194 7.20868 55.1142C7.20868 57.809 9.39966 60 12.0944 60C14.7892 60 16.9802 57.809 16.9802 55.1142V50.1347C18.1401 49.7481 18.972 48.6468 18.972 47.3579V45.3076H19.3821C19.8976 45.3076 20.3194 44.8858 20.3194 44.3702C20.3194 43.8547 19.8976 43.4329 19.3821 43.4329H16.9919V42.4019H21.245C26.8689 42.4019 31.45 37.8207 31.45 32.1968V9.13884C31.45 6.7604 29.5168 4.8389 27.1501 4.8389ZM29.5754 32.1968C29.5754 36.7897 25.8379 40.5272 21.245 40.5272H16.9919V38.9572H21.245C24.9708 38.9572 28.0054 35.9227 28.0054 32.1968V9.87698C28.0054 8.99824 27.2907 8.28354 26.412 8.28354H5.69726C4.81852 8.28354 4.10382 8.99824 4.10382 9.87698V32.1968C4.10382 35.9227 7.13838 38.9572 10.8642 38.9572H15.1173V40.5272H10.8642C6.27136 40.5272 2.53381 36.7897 2.53381 32.1968V9.13884C2.53381 7.80316 3.62345 6.71353 4.95912 6.71353H12.61C13.1958 6.71353 13.6645 6.24487 13.6645 5.65905V4.26479C13.6645 2.94083 14.7424 1.87463 16.0546 1.87463C17.3786 1.87463 18.4448 2.95255 18.4448 4.26479V5.65905C18.4448 6.24487 18.9134 6.71353 19.4992 6.71353H27.1501C28.4858 6.71353 29.5754 7.80316 29.5754 9.13884V32.1968ZM26.1308 32.1968C26.1308 32.7592 26.037 33.2982 25.8613 33.802H24.3147C23.7992 33.802 23.3774 33.3802 23.3774 32.8647C23.3774 32.3492 23.7992 31.9274 24.3147 31.9274H26.1308V32.1968ZM26.1308 29.8184H24.3147C23.7992 29.8184 23.3774 29.3966 23.3774 28.8811C23.3774 28.3656 23.7992 27.9438 24.3147 27.9438H26.1308V29.8184ZM26.1308 25.8348H24.3147C23.7992 25.8348 23.3774 25.413 23.3774 24.8975C23.3774 24.382 23.7992 23.9602 24.3147 23.9602H26.1308V25.8348ZM26.1308 19.1564H5.97845V10.1582H26.1308V19.1564Z" fill="white"/>
<path d="M25.217 50.2284H19.5462C19.0307 50.2284 18.6089 50.6502 18.6089 51.1657C18.6089 51.6812 19.0307 52.103 19.5462 52.103H25.217C25.7325 52.103 26.1543 51.6812 26.1543 51.1657C26.1543 50.6502 25.7325 50.2284 25.217 50.2284Z" fill="white"/>
<path d="M16.0545 3.2688C15.539 3.2688 15.1172 3.69059 15.1172 4.20612C15.1172 4.72164 15.539 5.14343 16.0545 5.14343C16.57 5.14343 16.9918 4.72164 16.9918 4.20612C16.9918 3.69059 16.57 3.2688 16.0545 3.2688Z" fill="white"/>
</svg>
