<svg width="26" height="50" viewBox="0 0 26 50" fill="none" xmlns="http://www.w3.org/2000/svg">
<path fill-rule="evenodd" clip-rule="evenodd" d="M19.2642 49.9999H5.74166C2.5754 49.9999 0 47.4245 0 44.2592V23.3845C0 18.0765 4.3187 13.7578 9.62673 13.7578H15.3782C20.6872 13.7578 25.0059 18.0765 25.0059 23.3845V44.2592C25.0059 47.4245 22.4295 49.9999 19.2642 49.9999ZM12.5029 36.9442C10.4344 36.9442 8.75166 35.2614 8.75166 33.1939C8.75166 30.3216 10.2957 28.7785 12.083 26.9913C12.1924 26.8809 12.3447 26.8165 12.5 26.8165C12.6553 26.8165 12.8076 26.875 12.917 26.9854C14.7101 28.7785 16.2532 30.3216 16.2532 33.1939C16.2532 35.2614 14.5705 36.9442 12.5029 36.9442ZM20.2604 40.2228H4.74451C4.42124 40.2228 4.1595 39.9601 4.1595 39.6368V24.1209C4.1595 23.7977 4.42124 23.5349 4.74451 23.5349H20.2604C20.5836 23.5349 20.8464 23.7977 20.8464 24.1209V39.6368C20.8464 39.9601 20.5836 40.2228 20.2604 40.2228ZM5.33049 39.0508H19.6744V24.7069H5.33049V39.0508ZM12.5029 28.2296C10.9813 29.7649 9.92363 31.0013 9.92363 33.1939C9.92363 34.6159 11.0809 35.7722 12.5029 35.7722C13.9249 35.7722 15.0813 34.6159 15.0813 33.1939C15.0813 30.9984 14.0216 29.763 12.5029 28.2296Z" fill="white"/>
<path fill-rule="evenodd" clip-rule="evenodd" d="M9.43457 6.83452V0.585983C9.43457 0.261739 9.69729 0 10.0206 0H21.3037C21.6269 0 21.8896 0.261739 21.8896 0.585983V3.78838C21.8896 4.11263 21.6269 4.37437 21.3037 4.37437H15.5718V6.83452H9.43457Z" fill="white"/>
<path fill-rule="evenodd" clip-rule="evenodd" d="M7.04834 12.8976V8.59258C7.04834 8.26931 7.31106 8.00659 7.63432 8.00659H17.3704C17.6947 8.00659 17.9564 8.26931 17.9564 8.59258V12.8976C17.1302 12.6945 16.2668 12.5861 15.3781 12.5861H9.62667C8.7389 12.5861 7.87555 12.6945 7.04834 12.8976Z" fill="white"/>
<path fill-rule="evenodd" clip-rule="evenodd" d="M23.0271 13.3419C21.5514 13.3419 20.3511 12.1416 20.3511 10.6659C20.3511 8.68624 21.398 7.64026 22.6091 6.42923C22.8386 6.19972 23.2126 6.19581 23.4412 6.42532C24.6571 7.64026 25.7031 8.68624 25.7031 10.6659C25.7031 12.1416 24.5028 13.3419 23.0271 13.3419Z" fill="white"/>
</svg>
