<svg width="47" height="47" viewBox="0 0 47 47" fill="none" xmlns="http://www.w3.org/2000/svg">
<path d="M45.9431 18.6659V21.8289C45.9431 21.987 45.8039 22.1154 45.6324 22.1154H36.1382V18.3559C36.1382 17.0804 35.7039 15.8651 34.8812 14.8395C34.8582 14.8097 34.834 14.7804 34.8104 14.7518L35.1031 14.6698C35.1616 14.6537 35.224 14.6537 35.2825 14.6699C35.341 14.6861 35.3931 14.7177 35.4324 14.761L37.571 17.1297L39.7097 14.761C39.7487 14.7176 39.8007 14.6858 39.8591 14.6696C39.9176 14.6534 39.98 14.6535 40.0384 14.6698L43.5105 15.6405C44.9657 16.0479 45.9431 17.2638 45.9431 18.6659ZM33.5621 8.22708C33.49 7.70239 33.5398 7.16956 33.7082 6.664C33.8767 6.15844 34.1599 5.69174 34.5391 5.29493C34.9182 4.89811 35.3846 4.58028 35.9073 4.36256C36.43 4.14483 36.9969 4.03221 37.5704 4.03217C38.6565 4.03217 39.6749 4.42296 40.4386 5.1329C41.3209 5.954 41.7372 7.08166 41.5794 8.22708L41.296 10.291C41.229 10.7754 41.0518 11.2414 40.7759 11.6583C40.5001 12.0752 40.1319 12.4336 39.6954 12.7102C39.0679 13.1079 38.3328 13.3181 37.5704 13.3181C36.808 13.3181 36.0736 13.1079 35.4454 12.7102C35.009 12.4336 34.6409 12.0751 34.3652 11.6582C34.0895 11.2413 33.9124 10.7754 33.8454 10.291L33.5621 8.22708ZM5.42064 8.22708C5.34851 7.70239 5.39832 7.16956 5.56677 6.664C5.73521 6.15844 6.01843 5.69174 6.39759 5.29493C6.77675 4.89811 7.24317 4.58028 7.76584 4.36256C8.2885 4.14483 8.85544 4.03221 9.42896 4.03217C10.5151 4.03217 11.5335 4.42296 12.2971 5.1329C13.1794 5.954 13.5957 7.08166 13.4379 8.22708L13.1539 10.291C13.0197 11.2697 12.4363 12.1515 11.554 12.7102C10.9264 13.1079 10.1913 13.3181 9.42896 13.3181C8.66656 13.3181 7.93213 13.1079 7.30394 12.7102C6.86756 12.4336 6.49945 12.0751 6.22373 11.6582C5.94801 11.2413 5.77089 10.7754 5.70397 10.291L5.42064 8.22708ZM12.1896 14.7518C12.1647 14.7822 12.1411 14.8108 12.1188 14.8389C11.2967 15.8634 10.8618 17.0799 10.8618 18.3559V22.1154H1.36759C1.1961 22.1154 1.05691 21.987 1.05691 21.8289V18.6659C1.05691 17.2638 2.03429 16.0479 3.48949 15.6411L6.96158 14.6698C7.08088 14.6366 7.21074 14.6727 7.29027 14.761L9.42896 17.1297L11.5676 14.761C11.6068 14.7176 11.6589 14.6859 11.7174 14.6697C11.776 14.6535 11.8384 14.6535 11.8969 14.6698L12.1896 14.7518ZM10.5629 35.963C8.6939 36.862 6.94667 37.9518 5.33676 39.2244C2.12377 35.6432 0.262209 31.2449 0 26.5693H9.14624C9.23696 29.8479 9.71975 33.0424 10.5629 35.963ZM47 26.5693C46.7378 31.2443 44.8769 35.6421 41.6645 39.2239C40.0546 37.9524 38.3067 36.862 36.4365 35.9624C37.2803 33.0418 37.763 29.8479 37.8538 26.5693H47ZM22.2573 26.5693V33.0693C19.1071 33.1954 16.0382 33.8033 13.1179 34.8806C13.0297 34.9132 12.9414 34.9459 12.8538 34.9803C12.1337 32.3571 11.718 29.5024 11.6316 26.5693H22.2573ZM35.3684 26.5693C35.282 29.5024 34.8663 32.3571 34.1462 34.9797C34.0586 34.9459 33.9703 34.9132 33.8821 34.8806C30.9618 33.8033 27.8929 33.1954 24.7427 33.0693V26.5693H35.3684ZM16.05 46.0144C16.0494 46.0144 16.0482 46.0139 16.0476 46.0139C15.9823 45.9938 15.9183 45.9738 15.8543 45.9531L15.8307 45.9457C15.8232 45.9428 15.8152 45.9405 15.8077 45.9382C15.7798 45.9296 15.7524 45.9205 15.7245 45.9119L15.6965 45.9027C15.6946 45.9021 15.6921 45.9016 15.6897 45.9004C15.6567 45.8901 15.6244 45.8798 15.5921 45.8689L15.5648 45.8597C15.4529 45.8231 15.3405 45.7858 15.2323 45.748C15.1478 45.7182 15.0633 45.6884 14.9832 45.6598L14.921 45.6374C14.8881 45.6254 14.8558 45.6139 14.8229 45.6019L14.8223 45.6013C14.8185 45.6002 14.8142 45.5984 14.8098 45.5967C14.7968 45.5916 14.7837 45.587 14.7707 45.5824C14.7365 45.5704 14.703 45.5578 14.6638 45.5429C14.5917 45.5159 14.5203 45.489 14.4488 45.4609C14.446 45.4602 14.4433 45.4593 14.4407 45.4581C14.292 45.4012 14.1441 45.3426 13.9971 45.2822L13.9592 45.2667C13.9549 45.265 13.9499 45.2632 13.9455 45.261L13.8989 45.242C13.8691 45.23 13.8393 45.2174 13.8132 45.2071L13.7691 45.1882C13.7629 45.1853 13.7573 45.183 13.7517 45.1807C13.7131 45.1653 13.6759 45.1492 13.6386 45.1332C13.6361 45.132 13.6342 45.1315 13.6318 45.1303C13.5628 45.1011 13.4938 45.0713 13.4217 45.0392C13.3627 45.0134 13.3031 44.9871 13.244 44.9601C13.2403 44.9584 13.2372 44.9573 13.2335 44.9556L13.1254 44.9074C13.0564 44.8765 12.988 44.845 12.9197 44.8129L12.911 44.8089C12.8439 44.7773 12.7768 44.7464 12.7072 44.7132L12.7004 44.7097C12.6569 44.6885 12.6134 44.6679 12.5699 44.6467C12.568 44.6456 12.5655 44.6444 12.5637 44.6433L12.5568 44.6398C12.5108 44.6181 12.4655 44.5957 12.4183 44.5728C12.3431 44.5355 12.2679 44.4983 12.1933 44.4605C12.1871 44.457 12.1809 44.4542 12.1747 44.4513L12.1672 44.4473C12.0871 44.4066 12.0075 44.3654 11.9237 44.3218C11.8435 44.28 11.7627 44.2376 11.6851 44.1958C11.6242 44.1625 11.5633 44.1299 11.5012 44.0955C11.4943 44.0915 11.4869 44.088 11.4794 44.084C11.3961 44.0376 11.3129 43.9918 11.229 43.9448C11.1588 43.9052 11.0898 43.8657 11.0208 43.825C11.0177 43.8233 11.014 43.8216 11.0109 43.8199L11.0053 43.8164C11.0032 43.8149 11.0009 43.8136 10.9985 43.8124L10.9885 43.8067C10.8028 43.699 10.6182 43.589 10.4399 43.4789L10.384 43.4434C10.3804 43.4418 10.3771 43.4399 10.374 43.4377C10.3672 43.4331 10.3597 43.4285 10.3529 43.4239L10.328 43.409C10.3038 43.3941 10.279 43.3787 10.2553 43.3632L10.2442 43.3563C10.0615 43.2411 9.89497 43.1334 9.7359 43.0274L9.7272 43.0211L9.71602 43.0142L9.62468 42.9524C9.58429 42.9249 9.5439 42.8979 9.50352 42.8698L9.49606 42.8647L9.43952 42.8263C9.42647 42.8177 9.41404 42.8091 9.40162 42.8005L9.08473 42.5776C9.04807 42.5518 9.01141 42.5249 8.97475 42.498C8.96294 42.4894 8.95052 42.4802 8.93809 42.4722C8.88279 42.4315 8.82687 42.3908 8.77219 42.3496C8.77095 42.3484 8.76598 42.345 8.76411 42.3438C8.70508 42.2997 8.64606 42.2556 8.58703 42.2109L8.57647 42.2029C8.52054 42.1605 8.464 42.1175 8.4087 42.0745C8.40125 42.0688 8.39379 42.0631 8.38633 42.0579C8.33352 42.0167 8.2807 41.9754 8.22851 41.9341L8.22354 41.9307C8.22106 41.9284 8.21857 41.9267 8.2167 41.925L8.19744 41.9101C8.18999 41.9038 8.18191 41.8975 8.17445 41.8912C8.12661 41.8539 8.07939 41.8161 8.03216 41.7783C8.02968 41.7766 8.02719 41.7743 8.02533 41.7726C7.96444 41.7244 7.90479 41.6751 7.84762 41.6282L7.8091 41.5966C7.77617 41.5691 7.74324 41.5422 7.71093 41.5147C7.70409 41.509 7.69726 41.5032 7.6898 41.4975C7.66184 41.4746 7.63388 41.4505 7.60592 41.427C7.59784 41.4196 7.58977 41.4127 7.58107 41.4058L7.57485 41.4001C7.52933 41.3623 7.48438 41.3239 7.44002 41.2849C7.43676 41.2824 7.43365 41.2797 7.4307 41.2769C7.4046 41.2546 7.37851 41.2316 7.35303 41.2093C7.34868 41.2053 7.34371 41.2013 7.33936 41.1973C7.28903 41.1543 7.2387 41.1102 7.189 41.0655C7.18713 41.0643 7.18589 41.0626 7.18402 41.0609C7.1337 41.0168 7.08337 40.9727 7.03055 40.9239C7.02682 40.9205 7.02247 40.9171 7.01875 40.9131C8.3406 39.8753 9.77477 38.9657 11.2986 38.1988C12.5096 41.4563 14.1437 44.1081 16.05 46.0144ZM22.2573 35.3636V47C20.753 46.6969 19.2711 45.8483 17.9166 44.5035C16.1718 42.7724 14.6725 40.2696 13.5796 37.2659C13.5709 37.2419 13.5622 37.2178 13.5541 37.1937C13.7156 37.1307 13.8778 37.0688 14.0406 37.0087C16.6664 36.0397 19.4252 35.4879 22.2573 35.3636ZM33.4459 37.1937C33.4378 37.2178 33.4291 37.2413 33.4204 37.2654C32.3281 40.2696 30.8282 42.7724 29.0841 44.5035C27.7295 45.8483 26.247 46.6969 24.7427 47V35.3636C27.5748 35.4879 30.3336 36.0397 32.9594 37.0087C33.1228 37.0688 33.285 37.1307 33.4459 37.1937ZM39.9813 40.9131L39.9688 40.9245C39.8458 41.0363 39.7147 41.1514 39.5693 41.2769C39.5152 41.3239 39.4606 41.3709 39.4015 41.4207L39.3177 41.4912C39.3065 41.5004 39.2947 41.5101 39.2829 41.5204C39.2394 41.5565 39.1952 41.5926 39.1493 41.6305C39.0915 41.6786 39.0331 41.7261 38.9747 41.7737C38.9163 41.8201 38.8579 41.8671 38.7988 41.9129L38.7858 41.9233C38.7547 41.9485 38.7236 41.9731 38.692 41.9972C38.6839 42.0035 38.6758 42.0092 38.6677 42.0155C38.6429 42.0356 38.618 42.0545 38.5932 42.074C38.5869 42.0785 38.5814 42.0831 38.5751 42.0877L38.4801 42.1599C38.4763 42.1628 38.4726 42.1662 38.4683 42.1691C38.4186 42.2075 38.3682 42.2458 38.3148 42.2854C38.244 42.3387 38.1719 42.392 38.0973 42.4464C38.0476 42.4825 37.9979 42.5186 37.9488 42.5535L37.9078 42.5828C37.8823 42.6011 37.8575 42.6194 37.832 42.6372C37.8258 42.6412 37.8202 42.6452 37.814 42.6498C37.7804 42.6739 37.7463 42.6979 37.7127 42.7214C37.6779 42.7455 37.6425 42.7701 37.6071 42.7942C37.4866 42.8781 37.365 42.9606 37.2423 43.0417C37.2403 43.0429 37.2385 43.0442 37.2368 43.0458C37.21 43.0635 37.1827 43.0819 37.1554 43.0996L37.1361 43.1122L37.1299 43.1162L37.1106 43.1288C37.1081 43.1306 37.1057 43.1323 37.1032 43.1334L37.0938 43.1397C37.0864 43.1443 37.0789 43.1489 37.0715 43.154C37.0249 43.185 36.9777 43.2154 36.9323 43.2446L36.8782 43.279L36.7589 43.3546C36.7546 43.3575 36.7502 43.3603 36.7453 43.3632C36.7223 43.3781 36.6993 43.3924 36.6757 43.4067L36.6471 43.4245C36.6465 43.4251 36.6465 43.4257 36.6459 43.4257C36.6403 43.4291 36.6334 43.4331 36.6272 43.4377C36.6235 43.4394 36.6204 43.4417 36.6173 43.4434L36.4781 43.5294C36.416 43.5678 36.3532 43.6056 36.2898 43.6434C36.2768 43.6508 36.2631 43.6589 36.2463 43.6692C36.2445 43.6703 36.2426 43.6715 36.2401 43.6726L36.2264 43.6806C36.1649 43.7173 36.1028 43.754 36.04 43.7901C36.0376 43.7918 36.0345 43.7935 36.0313 43.7952C35.9705 43.8313 35.9089 43.8663 35.8474 43.9012C35.8418 43.9041 35.8369 43.9075 35.8313 43.9104C35.8151 43.9196 35.799 43.9287 35.7834 43.9379L35.7468 43.9585C35.6865 43.9923 35.6262 44.0267 35.5616 44.0617C35.4808 44.1064 35.3988 44.1505 35.3174 44.1946C35.1583 44.28 34.9949 44.3654 34.8284 44.4496C34.7489 44.4903 34.6693 44.5304 34.588 44.5699C34.583 44.5722 34.5774 44.5751 34.5724 44.5774C34.5283 44.5997 34.4842 44.6215 34.4388 44.6427C34.4289 44.6473 34.4189 44.6524 34.409 44.6576L34.3904 44.6662L34.3487 44.6862C34.3282 44.6966 34.3071 44.7069 34.286 44.7166C34.281 44.7189 34.2767 44.7212 34.2723 44.7229C34.2686 44.7246 34.2649 44.7263 34.2617 44.7281C34.1313 44.7894 33.9995 44.8507 33.8684 44.9103C33.8659 44.9114 33.8641 44.912 33.8622 44.9131C33.8051 44.9395 33.7473 44.9653 33.6895 44.9905C33.6858 44.9916 33.6826 44.9934 33.6789 44.9951C33.5745 45.0415 33.4695 45.0873 33.362 45.1332C33.2893 45.1641 33.2166 45.1951 33.1439 45.2243C33.1365 45.2271 33.1296 45.23 33.1222 45.2335C33.0874 45.2483 33.0526 45.2621 33.0141 45.2781C33.0116 45.2787 33.0097 45.2799 33.0072 45.281L32.9942 45.2862C32.9917 45.2873 32.9892 45.2879 32.9867 45.289C32.929 45.3131 32.8705 45.3366 32.8115 45.3595C32.8078 45.3612 32.8034 45.3629 32.7991 45.3647C32.7363 45.3899 32.673 45.4145 32.6052 45.4409L32.5692 45.4541C32.5661 45.4558 32.5624 45.4569 32.5592 45.4586C32.5276 45.4712 32.4959 45.4833 32.4642 45.4947C32.4592 45.4965 32.4505 45.4999 32.4455 45.5016C32.412 45.5148 32.3784 45.5274 32.3443 45.54C32.3399 45.5417 32.3356 45.5429 32.3318 45.5446C32.3026 45.5555 32.2728 45.5664 32.243 45.5772L32.1871 45.5979L32.1647 45.6065L32.1355 45.6174C32.0212 45.6592 31.9062 45.6999 31.7906 45.7406L31.5527 45.8208C31.5452 45.8236 31.5371 45.8259 31.5297 45.8282C31.4918 45.8414 31.4533 45.854 31.4147 45.8672L31.3047 45.9027C31.2855 45.909 31.2662 45.9153 31.2463 45.9216L31.1917 45.9388C31.1842 45.9411 31.1774 45.9434 31.1699 45.9457L31.1469 45.9531C31.0829 45.9738 31.0183 45.9938 30.9543 46.0133C30.9531 46.0139 30.9524 46.0139 30.9512 46.0144C32.8569 44.1081 34.4904 41.4557 35.7014 38.1982C37.2252 38.9655 38.6593 39.8752 39.9813 40.9131ZM34.2742 18.3559V22.1154H12.7258V18.3559C12.7258 17.45 13.0346 16.5859 13.6199 15.8582C13.6436 15.8284 13.6678 15.7992 13.692 15.7706C13.7622 15.6881 13.8349 15.609 13.9101 15.5322C13.9886 15.4525 14.0705 15.3756 14.1555 15.3019C14.6619 14.8601 15.2721 14.5335 15.9519 14.3432L20.3249 13.1205C20.3931 13.1014 20.4644 13.0933 20.5355 13.0964C20.5449 13.097 20.5548 13.0975 20.5648 13.0987C20.5902 13.1004 20.6157 13.1044 20.6399 13.1096C20.6474 13.1107 20.6555 13.1124 20.6629 13.1147C20.6878 13.1205 20.7126 13.1279 20.7362 13.1365C20.7536 13.1428 20.771 13.1503 20.7878 13.1583C20.7884 13.1589 20.7897 13.1594 20.7909 13.16C20.8077 13.168 20.8251 13.1772 20.8412 13.1869C20.8599 13.1976 20.8778 13.2095 20.8947 13.2225C20.9177 13.2397 20.9394 13.2583 20.9599 13.278C20.9674 13.2855 20.9755 13.2935 20.9829 13.3021L23.5 16.0903L26.0165 13.3021C26.0747 13.2375 26.1476 13.1856 26.2301 13.1499C26.3126 13.1143 26.4026 13.0958 26.4937 13.0958C26.5539 13.0958 26.6148 13.1038 26.6745 13.1205L31.0481 14.3432C31.7279 14.5335 32.3374 14.8601 32.8445 15.3013C32.9294 15.3754 33.0112 15.4524 33.0899 15.5322C33.1651 15.609 33.2378 15.6881 33.3074 15.7706C33.3322 15.7992 33.3564 15.8284 33.3801 15.8582C33.9647 16.5859 34.2742 17.45 34.2742 18.3559ZM18.5311 5.19937C18.4418 4.54896 18.5037 3.88848 18.7126 3.26183C18.9215 2.63518 19.2727 2.05671 19.7427 1.56485C20.2127 1.07304 20.7908 0.679138 21.4386 0.409326C22.0865 0.139514 22.7892 -2.04075e-05 23.5 2.23866e-09C24.8458 2.23866e-09 26.1078 0.484182 27.0547 1.3643C28.1483 2.38194 28.664 3.77948 28.4689 5.19937L28.1116 7.79905C28.0288 8.39877 27.8096 8.9756 27.4682 9.49174C27.1268 10.0079 26.6711 10.4517 26.1308 10.7941C25.3535 11.2863 24.4438 11.5464 23.5 11.5464C22.5562 11.5464 21.6465 11.2863 20.8692 10.7941C20.3289 10.4517 19.8732 10.0079 19.5318 9.49174C19.1904 8.9756 18.9712 8.39877 18.8884 7.79905L18.5311 5.19937Z" fill="#7AB741"/>
</svg>
