<svg width="51" height="52" viewBox="0 0 51 52" fill="none" xmlns="http://www.w3.org/2000/svg">
<path d="M22.9588 34.6742L28.423 30.1207C29.1376 29.5274 29.9949 29.1312 30.9099 28.9713C31.8249 28.8114 32.7658 28.8935 33.6393 29.2093L39.3783 31.2961C39.6575 31.3978 39.9524 31.4498 40.2496 31.4497H51V29.7497H40.2496C40.1505 29.7497 40.0523 29.7324 39.9592 29.6985L34.2202 27.6115C33.3339 27.2901 32.3917 27.1512 31.4503 27.2032V27.1997H21.5264C21.2523 27.1996 20.98 27.2438 20.72 27.3306L13.5939 29.7059C13.5074 29.7348 13.4167 29.7495 13.3254 29.7495H13.3247L0.00148757 29.7393L0.000212582 31.4392L13.3234 31.4494H13.3255C13.5995 31.4495 13.8718 31.4053 14.1317 31.3185L21.2577 28.9433C21.3444 28.9144 21.4351 28.8997 21.5264 28.8997H27.2327L21.8706 33.3682C21.2096 33.919 20.7944 34.7098 20.7165 35.5667C20.6386 36.4236 20.9043 37.2763 21.4551 37.9373C22.0059 38.5983 22.7967 39.0135 23.6536 39.0914C24.5105 39.1693 25.3632 38.9036 26.0242 38.3528L28.8482 35.9995L36.3742 43.5255C36.4627 43.614 36.5329 43.7191 36.5808 43.8347C36.6287 43.9504 36.6533 44.0743 36.6533 44.1994C36.6533 44.3246 36.6287 44.4485 36.5808 44.5642C36.5329 44.6798 36.4627 44.7849 36.3742 44.8734C36.2857 44.9619 36.1806 45.0321 36.065 45.08C35.9493 45.1279 35.8254 45.1525 35.7003 45.1525C35.5751 45.1525 35.4512 45.1279 35.3355 45.08C35.2199 45.0321 35.1148 44.9619 35.0263 44.8734L34.1763 44.0234L28.6514 38.4985L27.4493 39.7006L32.9742 45.2255C33.153 45.4042 33.2534 45.6466 33.2534 45.8994C33.2534 46.1522 33.153 46.3946 32.9742 46.5733C32.7955 46.7521 32.5531 46.8525 32.3003 46.8525C32.0475 46.8525 31.8051 46.7521 31.6264 46.5733L30.7764 45.7234L26.9515 41.8984L25.7494 43.1005L29.5743 46.9255C29.6628 47.014 29.733 47.119 29.7809 47.2347C29.8288 47.3503 29.8535 47.4742 29.8535 47.5994C29.8535 47.7246 29.8288 47.8485 29.7809 47.9641C29.733 48.0798 29.6628 48.1848 29.5743 48.2733C29.4858 48.3618 29.3807 48.432 29.2651 48.4799C29.1495 48.5278 29.0255 48.5525 28.9004 48.5525C28.7752 48.5525 28.6513 48.5278 28.5356 48.4799C28.42 48.432 28.3149 48.3618 28.2264 48.2733L26.5265 46.5733L25.589 45.636C25.5261 44.9983 25.2342 44.405 24.7673 43.966C24.3005 43.5271 23.6903 43.2722 23.0499 43.2487C23.0254 42.5803 22.7489 41.9458 22.2759 41.4728C21.8029 40.9998 21.1684 40.7233 20.5 40.6988C20.4841 40.2843 20.3713 39.8794 20.1706 39.5164C19.9699 39.1534 19.687 38.8425 19.3445 38.6086C19.0019 38.3748 18.6094 38.2244 18.1982 38.1697C17.7871 38.1149 17.3689 38.1572 16.9771 38.2933C16.8389 37.8597 16.5915 37.469 16.2586 37.1586C15.9258 36.8483 15.5186 36.6289 15.0764 36.5214C14.6342 36.4139 14.1718 36.4221 13.7336 36.5451C13.2955 36.668 12.8963 36.9017 12.5746 37.2235L10.8746 38.9235C10.6282 39.1696 10.4328 39.4619 10.2997 39.7837C10.1666 40.1055 10.0983 40.4504 10.0988 40.7987L0.00169995 40.7891L0 42.4891L10.7141 42.4992C10.7646 42.5597 10.8178 42.6187 10.8745 42.6755C11.3468 43.1501 11.982 43.4271 12.6512 43.4501C12.6757 44.1186 12.9522 44.753 13.4252 45.226C13.8982 45.699 14.5327 45.9755 15.2011 46C15.217 46.4145 15.3298 46.8194 15.5305 47.1824C15.7312 47.5454 16.0141 47.8563 16.3566 48.0902C16.6992 48.3241 17.0917 48.4744 17.5029 48.5292C17.914 48.5839 18.3322 48.5416 18.724 48.4055C18.8401 48.7694 19.0334 49.104 19.2907 49.3863C19.548 49.6686 19.8632 49.8921 20.2148 50.0414C20.5664 50.1907 20.946 50.2623 21.3279 50.2514C21.7097 50.2404 22.0846 50.1472 22.4271 49.978L22.7744 50.3254C23.0789 50.6302 23.4531 50.8563 23.8646 50.984C24.2761 51.1117 24.7125 51.1371 25.1361 51.0582C25.5596 50.9793 25.9576 50.7984 26.2955 50.5311C26.6334 50.2637 26.9011 49.9181 27.0753 49.5241C27.401 49.8335 27.7999 50.055 28.2347 50.1679C28.6694 50.2809 29.1257 50.2814 29.5608 50.1696C29.9958 50.0578 30.3953 49.8372 30.7217 49.5287C31.0481 49.2201 31.2908 48.8337 31.4268 48.4056C31.7614 48.5223 32.116 48.5707 32.4697 48.548C32.8233 48.5254 33.1688 48.432 33.4858 48.2736C33.8027 48.1151 34.0847 47.8947 34.315 47.6254C34.5454 47.3561 34.7194 47.0433 34.8268 46.7056C35.2959 46.8691 35.8015 46.8975 36.2861 46.7877C36.7706 46.6778 37.2145 46.4342 37.5673 46.0844C37.9202 45.7347 38.1677 45.2929 38.2818 44.8094C38.3959 44.3259 38.3719 43.82 38.2126 43.3495H39.7655C40.6087 43.3503 41.433 43.0995 42.1328 42.6291L43.3938 41.7833C43.5338 41.6891 43.6987 41.6389 43.8674 41.6391H51V39.9391H43.8676C43.3616 39.9386 42.867 40.0891 42.447 40.3713L41.1859 41.2173C40.766 41.4995 40.2714 41.65 39.7655 41.6495H36.9023L32.5248 37.2721C33.9973 37.3144 35.4368 36.8314 36.5858 35.9096L37.0812 35.5133L36.0193 34.1859L35.524 34.5822C34.6554 35.2784 33.5603 35.6294 32.4489 35.5678C31.3374 35.5062 30.2878 35.0364 29.5014 34.2486L28.9525 33.6997L24.9359 37.0468C24.7801 37.1766 24.6003 37.2745 24.4067 37.3348C24.2131 37.3951 24.0095 37.4167 23.8075 37.3984C23.6056 37.38 23.4092 37.3221 23.2296 37.2278C23.0501 37.1336 22.8908 37.0049 22.761 36.8491C22.6312 36.6933 22.5333 36.5135 22.473 36.3199C22.4127 36.1262 22.3911 35.9226 22.4095 35.7207C22.4278 35.5187 22.4858 35.3224 22.58 35.1428C22.6743 34.9632 22.803 34.804 22.9588 34.6742ZM12.7506 41.7525C12.5621 41.7526 12.3778 41.6967 12.2211 41.592C12.0643 41.4872 11.9421 41.3384 11.87 41.1642C11.7978 40.99 11.779 40.7984 11.8158 40.6135C11.8526 40.4286 11.9434 40.2587 12.0767 40.1255L13.7767 38.4255C13.9554 38.2468 14.1978 38.1463 14.4506 38.1463C14.7034 38.1463 14.9458 38.2468 15.1245 38.4255C15.3033 38.6042 15.4037 38.8466 15.4037 39.0994C15.4037 39.3522 15.3033 39.5946 15.1245 39.7734L13.4246 41.4733C13.3363 41.5621 13.2313 41.6325 13.1156 41.6805C12.9999 41.7284 12.8759 41.7529 12.7506 41.7525ZM15.3006 44.3025C15.1121 44.3025 14.9278 44.2467 14.771 44.1419C14.6143 44.0372 14.4921 43.8883 14.4199 43.7142C14.3478 43.54 14.3289 43.3483 14.3657 43.1634C14.4025 42.9785 14.4933 42.8087 14.6267 42.6754L16.3266 40.9755L17.1766 40.1255C17.3554 39.9467 17.5978 39.8463 17.8506 39.8463C18.1033 39.8463 18.3457 39.9467 18.5245 40.1255C18.7032 40.3042 18.8036 40.5466 18.8036 40.7994C18.8036 41.0522 18.7032 41.2946 18.5245 41.4733L15.9745 44.0233C15.8862 44.1121 15.7812 44.1825 15.6655 44.2304C15.5499 44.2783 15.4258 44.3028 15.3006 44.3025ZM18.5245 46.5732C18.3457 46.752 18.1033 46.8524 17.8506 46.8524C17.5978 46.8524 17.3554 46.752 17.1766 46.5732C16.9979 46.3945 16.8975 46.1521 16.8975 45.8993C16.8975 45.6465 16.9979 45.4041 17.1766 45.2254L19.7266 42.6754C19.9053 42.4967 20.1477 42.3963 20.4005 42.3963C20.6533 42.3963 20.8957 42.4967 21.0744 42.6754C21.2532 42.8542 21.3536 43.0966 21.3536 43.3494C21.3536 43.6021 21.2532 43.8446 21.0744 44.0233L19.3745 45.7233L18.5245 46.5732ZM21.9244 48.2732C21.7457 48.452 21.5033 48.5524 21.2505 48.5524C20.9977 48.5524 20.7553 48.452 20.5766 48.2732C20.3978 48.0945 20.2974 47.8521 20.2974 47.5993C20.2974 47.3465 20.3978 47.1041 20.5766 46.9254L22.2765 45.2254C22.4553 45.0466 22.6977 44.9462 22.9505 44.9462C23.2032 44.9462 23.4457 45.0466 23.6244 45.2254C23.8031 45.4041 23.9036 45.6465 23.9036 45.8993C23.9036 46.1521 23.8031 46.3945 23.6244 46.5732L21.9244 48.2732ZM25.3244 49.1232C25.2359 49.2117 25.1308 49.2819 25.0152 49.3298C24.8995 49.3777 24.7756 49.4024 24.6504 49.4024C24.5253 49.4024 24.4013 49.3777 24.2857 49.3298C24.1701 49.2819 24.065 49.2117 23.9765 49.1232L23.7276 48.8744L24.8265 47.7754C24.9096 47.692 24.9871 47.6032 25.0584 47.5095L25.3244 47.7754C25.5029 47.9543 25.6031 48.1967 25.6031 48.4494C25.6031 48.7021 25.5029 48.9443 25.3244 49.1232ZM42.5001 23.7998H40.8002V10.5247L30.6003 5.42479V9.67472L22.1005 5.42479V10.2H15.3006V5.1001H10.2007V23.7998H8.50071V25.4998H42.5001V23.7998ZM13.6006 23.7998H11.9007V10.2H13.6006V23.7998ZM13.6006 8.50004H11.9007V6.80007H13.6006V8.50004ZM22.1005 23.7998H15.3006V11.9H22.1005V23.7998ZM30.6003 23.7998H23.8005V8.17535L30.6003 11.5753V23.7998ZM39.1002 23.7998H32.3003V8.17535L39.1002 11.5753V23.7998Z" fill="white"/>
<path d="M17.0008 13.5998H20.4007V15.2997H17.0008V13.5998ZM17.0008 16.9997H20.4007V18.6997H17.0008V16.9997ZM17.0008 20.3997H20.4007V22.0996H17.0008V20.3997ZM34.0005 11.8998H37.4005V13.5998H34.0005V11.8998ZM34.0005 16.1497H37.4005V17.8497H34.0005V16.1497ZM34.0005 20.3997H37.4005V22.0996H34.0005V20.3997ZM25.5007 11.8998H28.9006V13.5998H25.5007V11.8998ZM25.5007 16.1497H28.9006V17.8497H25.5007V16.1497ZM25.5007 20.3997H28.9006V22.0996H25.5007V20.3997ZM13.6009 2.54996C13.5999 2.32588 13.6878 2.11055 13.8453 1.95121C14.0029 1.79187 14.2172 1.70152 14.4413 1.69997H15.2864C15.8936 1.69997 16.1542 1.9368 16.5862 2.32907C17.0836 2.78105 17.7647 3.39994 19.0289 3.39994C20.2929 3.39994 20.9743 2.78105 21.4717 2.32907C21.9037 1.93691 22.1645 1.69997 22.7716 1.69997C23.3787 1.69997 23.6396 1.9368 24.0716 2.32917C24.5689 2.78105 25.2504 3.39994 26.5145 3.39994C27.7786 3.39994 28.4601 2.78105 28.9575 2.32907C29.3896 1.9368 29.6503 1.69997 30.2575 1.69997C30.8647 1.69997 31.1255 1.9368 31.5575 2.32917C32.055 2.78105 32.7364 3.39994 34.0005 3.39994V1.69997C33.3932 1.69997 33.1325 1.46314 32.7006 1.07077C32.203 0.618896 31.5217 0 30.2574 0C28.9934 0 28.312 0.618896 27.8144 1.07077C27.3825 1.46314 27.1217 1.69997 26.5144 1.69997C25.9071 1.69997 25.6464 1.46314 25.2145 1.07088C24.7172 0.618896 24.0358 0 22.7716 0C21.5075 0 20.8262 0.618896 20.3287 1.07088C19.8968 1.46304 19.6362 1.69997 19.0289 1.69997C18.4218 1.69997 18.161 1.46314 17.7292 1.07098C17.2318 0.61879 16.5505 0 15.2864 0H14.4413C13.7665 0.0020257 13.1201 0.271636 12.6438 0.749681C12.1676 1.22773 11.9004 1.87517 11.9009 2.54996V3.39994H13.6009V2.54996Z" fill="white"/>
</svg>
