<svg width="47" height="47" viewBox="0 0 47 47" fill="none" xmlns="http://www.w3.org/2000/svg">
<path fill-rule="evenodd" clip-rule="evenodd" d="M5.0962 8.88791C6.03867 10.0642 7.67483 13.1684 7.73534 14.4045C8.0415 20.6629 10.57 21.3255 11.8102 21.6505C12.7126 21.8869 13.2507 22.2338 13.9144 22.9153C16.0978 25.1574 17.6686 29.6814 19.0217 31.2498C19.4721 31.7718 20.172 32.5806 21.0917 33.0391C21.9572 33.4705 23.0682 33.6008 24.4487 32.8689C25.8925 32.1034 25.706 30.8903 25.0109 29.5791C24.6433 28.9122 24.208 28.2848 23.7121 27.7069C23.3282 28.3158 22.9363 28.9227 22.5653 29.5574C22.4267 29.7939 22.2284 29.9898 21.9903 30.1257C21.7523 30.2616 21.4827 30.3327 21.2086 30.332C20.9345 30.3312 20.6653 30.2585 20.4281 30.1213C20.1908 29.984 19.9936 29.7869 19.8563 29.5497C18.9123 27.9134 17.8043 26.429 17.0603 24.6733C16.1671 22.5656 16.0053 20.3464 17.7403 18.6116C18.6626 17.6934 19.9111 17.1779 21.2125 17.1779C22.5139 17.1779 23.7624 17.6934 24.6847 18.6116C25.0865 19.0068 25.4104 19.474 25.6396 19.9889C26.6803 19.8835 27.6999 19.8338 28.5114 19.7942C29.2034 19.7604 29.7334 19.7346 29.9272 19.6934C30.4413 19.584 31.1894 19.2934 31.0835 18.7962C31.0376 18.5802 30.8668 18.3302 30.556 18.0607C29.0588 16.7628 26.085 15.1278 25.336 13.7018C24.766 12.6169 24.7165 11.8563 25.0141 11.2693C25.4523 10.4045 26.5356 10.1557 27.4997 9.90832C27.7997 9.83126 28.1153 9.75 28.4748 9.6377C30.4786 9.01108 32.5364 7.58239 30.5913 1.09023C25.2704 -0.586466 19.5273 -0.322395 14.3827 1.83551C15.4966 3.47882 15.2314 5.46089 14.4404 7.31245C13.6997 9.04632 12.6258 10.4775 11.6856 12.0854C11.5469 12.3219 11.3486 12.5178 11.1106 12.6537C10.8725 12.7896 10.603 12.8608 10.3288 12.86C10.0547 12.8592 9.78558 12.7865 9.5483 12.6493C9.31102 12.512 9.11387 12.3149 8.97653 12.0777C8.0836 10.53 7.0441 9.11819 6.30459 7.48428C5.88391 7.9359 5.48111 8.40384 5.0962 8.8881V8.88791ZM6.07764 39.2667C6.2576 39.2401 6.81881 39.0892 7.49527 38.9071C8.63826 38.5996 10.05 38.2196 11.3235 38.2741C13.2132 38.3548 14.7024 39.2786 14.5724 42.3177C14.5691 42.396 14.695 42.4601 14.8471 42.5373C15.5982 42.9185 16.5517 43.4024 16.4056 45.7977C16.4029 45.8416 16.4023 45.8765 16.4027 45.9054C19.8902 47.0084 23.587 47.2826 27.199 46.7062C30.8111 46.1298 34.2389 44.7187 37.2099 42.5851C36.512 41.6373 36.5941 40.8325 36.9782 39.8405C37.6611 38.0776 37.0634 36.3499 36.553 34.8743C35.9596 33.1589 35.4606 31.7152 36.5997 30.5788C35.529 28.3526 35.1017 25.8618 37.0201 23.9436C37.842 23.1211 38.9303 22.6187 40.0894 22.5266C40.3367 20.5991 41.395 19.5228 43.457 19.0677C44.2636 18.8896 45.2703 18.7988 46.5313 18.8121C45.7496 14.9848 44.0275 11.4122 41.5205 8.41655C39.0134 5.42087 35.8002 3.09626 32.1705 1.65232C33.9655 8.50596 31.3786 10.1632 28.8818 10.9439C28.2943 11.1276 27.6383 11.2647 27.06 11.4437C26.6408 11.5733 26.3256 11.7066 26.2348 11.8852C26.1388 12.0746 26.2129 12.4305 26.546 13.0649C26.8841 13.7084 28.0992 14.5652 29.3228 15.4278C30.0767 15.9594 30.8336 16.4931 31.4501 17.0275C33.2362 18.5757 32.569 20.5305 30.211 21.032C29.9189 21.0941 29.3363 21.1225 28.5759 21.1593C27.8375 21.1953 26.9199 21.24 25.9845 21.3282C26.1575 23.1027 25.3541 24.9322 24.4596 26.4806C25.5196 27.6827 26.7919 29.4248 26.8968 31.0829C26.9814 32.4182 26.2966 33.437 25.0861 34.0789C23.2278 35.0641 21.694 34.8697 20.4815 34.265C19.3232 33.6873 18.511 32.7492 17.9886 32.1436C16.5769 30.5075 14.9736 26.1467 13.1519 24.0838C12.6246 23.4865 12.225 23.1712 11.4678 22.9727C9.90736 22.5638 6.7256 21.73 6.37039 14.4685C6.32897 13.6219 4.91967 10.9627 4.25555 10.0126C1.19888 14.3735 -0.285594 19.6434 0.045461 24.9586C0.376516 30.2738 2.50346 35.3188 6.07764 39.2667ZM15.0512 45.4319C12.118 44.2994 9.44166 42.5901 7.18068 40.4051C8.4488 40.0889 9.98275 39.5843 11.2703 39.6394C12.4019 39.6878 13.2921 40.2856 13.2074 42.2643C13.1667 43.2177 13.649 43.4625 14.2318 43.7582C14.602 43.9461 15.0651 44.1814 15.0512 45.4319ZM46.7661 20.1825C45.1369 20.1469 43.0412 20.2534 42.1008 21.1728C41.7305 21.535 41.5525 22.0301 41.4627 22.6061C42.4107 22.7941 43.2815 23.2597 43.9644 23.9436C45.7226 25.7018 45.5063 27.9949 44.6 30.1165C43.8592 31.8503 42.7854 33.2815 41.8451 34.8894C41.7064 35.1259 41.5082 35.3218 41.2701 35.4578C41.032 35.5937 40.7625 35.6648 40.4884 35.664C40.2143 35.6632 39.9451 35.5906 39.7078 35.4533C39.4706 35.316 39.2734 35.1189 39.1361 34.8817C38.5717 33.9035 37.9488 32.9796 37.3801 32.0196C36.9786 33.7044 39.6458 36.7361 38.2524 40.3331C38.0226 40.9265 37.9339 41.2523 38.2962 41.7547C41.4532 39.1986 43.8932 35.8673 45.3778 32.0863C46.8623 28.3052 47.3407 24.2037 46.7661 20.1825ZM42.9952 24.9128C42.33 24.2515 41.4302 23.8804 40.4922 23.8804C39.5543 23.8804 38.6544 24.2515 37.9893 24.9128C35.4436 27.4584 38.7248 31.426 40.3233 34.1966C40.3405 34.2263 40.3651 34.251 40.3947 34.2682C40.4244 34.2853 40.4581 34.2944 40.4923 34.2945C40.5266 34.2946 40.5603 34.2857 40.59 34.2687C40.6198 34.2517 40.6446 34.2272 40.6619 34.1976C42.1261 31.6934 45.5601 27.4778 42.9952 24.9128ZM40.4861 28.3892C40.2514 28.3892 40.0219 28.3195 39.8267 28.1891C39.6315 28.0587 39.4794 27.8733 39.3895 27.6564C39.2997 27.4395 39.2762 27.2009 39.322 26.9706C39.3678 26.7404 39.4809 26.5289 39.6469 26.3629C39.8129 26.1969 40.0244 26.0838 40.2546 26.038C40.4849 25.9923 40.7236 26.0158 40.9404 26.1056C41.1573 26.1955 41.3427 26.3476 41.4731 26.5428C41.6035 26.738 41.6731 26.9675 41.6731 27.2023C41.6731 27.3582 41.6424 27.5125 41.5827 27.6565C41.5231 27.8005 41.4357 27.9314 41.3254 28.0416C41.2152 28.1518 41.0844 28.2392 40.9404 28.2988C40.7964 28.3585 40.642 28.3892 40.4861 28.3892ZM23.7151 19.5807C23.0499 18.9194 22.1501 18.5482 21.2121 18.5482C20.2742 18.5482 19.3744 18.9194 18.7092 19.5807C16.1636 22.1263 19.4447 26.0939 21.0432 28.8645C21.0604 28.8942 21.085 28.9188 21.1147 28.936C21.1443 28.9532 21.178 28.9623 21.2123 28.9624C21.2465 28.9625 21.2802 28.9536 21.31 28.9366C21.3397 28.9196 21.3645 28.8951 21.3818 28.8655C22.8463 26.3613 26.2803 22.1457 23.7151 19.5807ZM21.2062 23.0571C20.9714 23.0571 20.742 22.9874 20.5468 22.857C20.3516 22.7265 20.1995 22.5412 20.1097 22.3243C20.0199 22.1074 19.9964 21.8687 20.0422 21.6385C20.0881 21.4083 20.2011 21.1968 20.3671 21.0308C20.5331 20.8648 20.7446 20.7518 20.9749 20.706C21.2051 20.6602 21.4438 20.6837 21.6606 20.7736C21.8775 20.8634 22.0629 21.0156 22.1933 21.2108C22.3237 21.4059 22.3933 21.6354 22.3933 21.8702C22.3933 22.1849 22.2683 22.4868 22.0457 22.7094C21.8231 22.932 21.5212 23.0571 21.2065 23.0571H21.2062ZM12.8349 2.10858C12.1697 1.44731 11.2699 1.07614 10.3319 1.07614C9.39398 1.07614 8.49413 1.44731 7.82894 2.10858C5.2833 4.65422 8.56453 8.62179 10.1631 11.3924C10.1802 11.4221 10.2049 11.4467 10.2345 11.4639C10.2642 11.481 10.2978 11.4901 10.332 11.4902C10.3663 11.4903 10.4 11.4814 10.4297 11.4644C10.4595 11.4475 10.4842 11.423 10.5016 11.3934C11.9666 8.88918 15.4005 4.67351 12.8356 2.10858H12.8349ZM10.3266 5.58494C10.0918 5.58494 9.86234 5.51532 9.66715 5.38489C9.47195 5.25446 9.31981 5.06907 9.22998 4.85217C9.14015 4.63527 9.11666 4.39661 9.16247 4.16635C9.20829 3.9361 9.32135 3.72461 9.48737 3.55862C9.65339 3.39263 9.8649 3.2796 10.0952 3.23382C10.3254 3.18804 10.5641 3.21158 10.781 3.30144C10.9978 3.39131 11.1832 3.54348 11.3136 3.7387C11.444 3.93392 11.5136 4.16342 11.5136 4.39819C11.5135 4.71295 11.3884 5.01481 11.1658 5.23736C10.9432 5.45992 10.6414 5.58494 10.3266 5.58494Z" fill="#7AB741"/>
</svg>
