<svg width="51" height="51" viewBox="0 0 51 51" fill="none" xmlns="http://www.w3.org/2000/svg">
<path d="M13.1656 41.7085C13.1656 40.8481 12.4682 40.1507 11.6078 40.1507C10.7474 40.1507 10.0498 40.8481 10.0498 41.7085C10.0498 42.5689 10.7474 43.2664 11.6078 43.2664C12.4682 43.2664 13.1656 42.5689 13.1656 41.7085Z" fill="white"/>
<path d="M25.1363 44.3457C25.1363 43.4853 24.4389 42.7879 23.5785 42.7879C22.718 42.7879 22.0205 43.4853 22.0205 44.3457C22.0205 45.2061 22.718 45.9036 23.5785 45.9036C24.4389 45.9036 25.1363 45.2061 25.1363 44.3457Z" fill="white"/>
<path d="M34.4796 41.134C34.4796 39.3604 33.0418 37.9225 31.2681 37.9225C29.4944 37.9225 28.0566 39.3604 28.0566 41.134C28.0566 42.9077 29.4944 44.3455 31.2681 44.3455C33.0418 44.3455 34.4796 42.9077 34.4796 41.134Z" fill="white"/>
<path d="M18.2414 36.0251C18.2414 34.7029 17.1696 33.631 15.8473 33.631C14.5251 33.631 13.4531 34.7029 13.4531 36.0251C13.4531 37.3473 14.5251 38.4192 15.8473 38.4192C17.1696 38.4192 18.2414 37.3473 18.2414 36.0251Z" fill="white"/>
<path d="M34.139 31.5237C30.724 34.9387 25.1872 34.9387 21.7722 31.5237C18.3696 28.1211 12.8612 28.1098 9.44336 31.4877" stroke="white" stroke-width="1.5" stroke-miterlimit="10" stroke-linecap="round" stroke-linejoin="round"/>
<path d="M15.8467 10.4991V22.5111L1.96317 41.9733C-0.465077 45.3772 1.96816 50.1021 6.14948 50.1021H37.4069C41.5881 50.1021 44.0215 45.3772 41.5933 41.9733L27.7097 22.5111V10.4991" stroke="white" stroke-width="1.5" stroke-miterlimit="10" stroke-linecap="round" stroke-linejoin="round"/>
<path d="M28.7978 6.00641H14.6096C13.4013 6.00641 12.4219 6.98579 12.4219 8.19413V8.2117C12.4219 9.41993 13.4013 10.3994 14.6096 10.3994H28.7978C30.0061 10.3994 30.9855 9.41993 30.9855 8.2117V8.19413C30.9855 6.98579 30.0061 6.00641 28.7978 6.00641Z" stroke="white" stroke-width="1.5" stroke-miterlimit="10" stroke-linecap="round" stroke-linejoin="round"/>
<path d="M40.453 10.6473C41.6195 11.8139 43.511 11.8139 44.6776 10.6473L49.2271 6.09776C50.3938 4.93114 50.3938 3.03974 49.2271 1.87313C48.0606 0.706509 46.1691 0.706509 45.0026 1.87313L40.453 6.42272C39.2865 7.58924 39.2865 9.48074 40.453 10.6473Z" stroke="white" stroke-width="1.5" stroke-miterlimit="10" stroke-linecap="round" stroke-linejoin="round"/>
<path d="M39.041 25.4797L43.2656 21.2551" stroke="white" stroke-width="1.5" stroke-miterlimit="10" stroke-linecap="round" stroke-linejoin="round"/>
</svg>
