<svg width="47" height="52" viewBox="0 0 47 52" fill="none" xmlns="http://www.w3.org/2000/svg">
<path d="M27.1191 4.12402C27.1191 2.26308 25.6106 0.754395 23.7495 0.754395C21.8886 0.754395 20.3799 2.26308 20.3799 4.12402C20.3799 5.98496 21.8886 7.49365 23.7495 7.49365C25.6106 7.49365 27.1191 5.98496 27.1191 4.12402Z" stroke="white" stroke-width="1.5" stroke-miterlimit="10" stroke-linecap="round" stroke-linejoin="round"/>
<path d="M27.1191 47.376C27.1191 45.515 25.6106 44.0063 23.7495 44.0063C21.8886 44.0063 20.3799 45.515 20.3799 47.376C20.3799 49.2369 21.8886 50.7456 23.7495 50.7456C25.6106 50.7456 27.1191 49.2369 27.1191 47.376Z" stroke="white" stroke-width="1.5" stroke-miterlimit="10" stroke-linecap="round" stroke-linejoin="round"/>
<path d="M6.7064 12.0188C5.09471 11.0883 3.03391 11.6405 2.10339 13.2522C1.17286 14.8639 1.72508 16.9247 3.33677 17.8551C4.94836 18.7856 7.00926 18.2335 7.93978 16.6218C8.8703 15.0101 8.31799 12.9492 6.7064 12.0188Z" stroke="white" stroke-width="1.5" stroke-miterlimit="10" stroke-linecap="round" stroke-linejoin="round"/>
<path d="M3.33677 33.6448C1.72508 34.5752 1.17286 36.6361 2.10339 38.2478C3.03391 39.8595 5.09471 40.4116 6.7064 39.4811C8.31799 38.5506 8.8703 36.4898 7.93978 34.8781C7.00926 33.2665 4.94836 32.7142 3.33677 33.6448Z" stroke="white" stroke-width="1.5" stroke-miterlimit="10" stroke-linecap="round" stroke-linejoin="round"/>
<path d="M40.7938 12.0188C39.1822 12.9492 38.6299 15.0101 39.5604 16.6218C40.4909 18.2335 42.5518 18.7856 44.1634 17.8551C45.7751 16.9247 46.3273 14.8639 45.3968 13.2522C44.4664 11.6405 42.4055 11.0883 40.7938 12.0188Z" stroke="white" stroke-width="1.5" stroke-miterlimit="10" stroke-linecap="round" stroke-linejoin="round"/>
<path d="M39.561 13.2524L26.668 5.80862" stroke="white" stroke-width="1.5" stroke-miterlimit="10" stroke-linecap="round" stroke-linejoin="round"/>
<path d="M42.4785 33.1938V18.3063" stroke="white" stroke-width="1.5" stroke-miterlimit="10" stroke-linecap="round" stroke-linejoin="round"/>
<path d="M26.668 45.6913L39.561 38.2476" stroke="white" stroke-width="1.5" stroke-miterlimit="10" stroke-linecap="round" stroke-linejoin="round"/>
<path d="M7.93945 38.2476L20.8325 45.6913" stroke="white" stroke-width="1.5" stroke-miterlimit="10" stroke-linecap="round" stroke-linejoin="round"/>
<path d="M5.02148 18.3063V33.1938" stroke="white" stroke-width="1.5" stroke-miterlimit="10" stroke-linecap="round" stroke-linejoin="round"/>
<path d="M20.8325 5.80862L7.93945 13.2524" stroke="white" stroke-width="1.5" stroke-miterlimit="10" stroke-linecap="round" stroke-linejoin="round"/>
<path d="M23.0615 25.3527C23.2707 25.4735 23.5081 25.537 23.7497 25.537C23.9913 25.537 24.2286 25.4735 24.4379 25.3527L35.4134 19.016C35.2932 18.8076 35.1202 18.6346 34.9119 18.5143L24.435 12.4654C24.2266 12.3452 23.9903 12.2819 23.7497 12.2819C23.5092 12.2819 23.2728 12.3452 23.0645 12.4654L12.5876 18.5143C12.3792 18.6346 12.2062 18.8076 12.0859 19.016L23.0615 25.3527Z" stroke="white" stroke-width="1.5" stroke-miterlimit="10" stroke-linecap="round" stroke-linejoin="round"/>
<path d="M16.3662 16.333L28.1972 23.1812V23.1826L31.48 21.2871L19.6479 14.4383L16.3662 16.333Z" stroke="white" stroke-width="1.5" stroke-miterlimit="10" stroke-linecap="round" stroke-linejoin="round"/>
<path d="M23.0614 25.3527L12.0859 19.016C11.9656 19.2243 11.9023 19.4606 11.9023 19.7011V31.7988C11.9023 32.2885 12.1636 32.7409 12.5875 32.9856L23.0645 39.0346C23.2728 39.1549 23.5091 39.2182 23.7497 39.2181V25.537C23.512 25.537 23.2744 25.4756 23.0614 25.3527Z" stroke="white" stroke-width="1.5" stroke-miterlimit="10" stroke-linecap="round" stroke-linejoin="round"/>
<path d="M28.1973 23.1826V28.2373C28.1973 28.5129 28.4955 28.6851 28.7341 28.5473L31.1415 27.1574C31.2448 27.0978 31.3305 27.0121 31.3901 26.9089C31.4497 26.8056 31.4811 26.6885 31.4811 26.5693V21.2878L31.4801 21.2872L28.1973 23.1826Z" stroke="white" stroke-width="1.5" stroke-miterlimit="10" stroke-linecap="round" stroke-linejoin="round"/>
<path d="M44.2386 39.437C44.7181 39.1438 45.1163 38.7349 45.3966 38.2478C46.3271 36.6361 45.7749 34.5753 44.1632 33.6448C42.5516 32.7143 40.4907 33.2665 39.5602 34.8782C38.6445 36.4641 39.1655 38.4843 40.7181 39.435" stroke="white" stroke-width="1.5" stroke-miterlimit="10" stroke-linecap="round" stroke-linejoin="round"/>
<path d="M35.597 24.9807V19.7012C35.597 19.2116 35.3357 18.7592 34.9118 18.5144L24.4348 12.4655C24.2265 12.3452 23.9902 12.2819 23.7497 12.2819C23.5091 12.2819 23.2728 12.3452 23.0645 12.4655L12.5875 18.5144C12.3792 18.6346 12.2062 18.8076 12.0859 19.016C11.9657 19.2243 11.9023 19.4606 11.9023 19.7012V31.7989C11.9023 32.2885 12.1635 32.7409 12.5875 32.9858L23.0645 39.0346C23.2728 39.1549 23.5091 39.2182 23.7497 39.2182C23.9902 39.2182 24.2265 39.1549 24.4348 39.0346L34.9118 32.9858C35.1201 32.8655 35.2931 32.6925 35.4134 32.4841C35.5336 32.2758 35.597 32.0395 35.597 31.7989V28.5012" stroke="white" stroke-width="1.5" stroke-miterlimit="10" stroke-linecap="round" stroke-linejoin="round"/>
</svg>
