<svg width="51" height="50" viewBox="0 0 51 50" fill="none" xmlns="http://www.w3.org/2000/svg">
<path d="M5.39264 41.1765H1.47107C0.658919 41.1765 0.000488281 40.5181 0.000488281 39.7059C0.000488281 38.8938 0.658919 38.2354 1.47107 38.2354H5.39264C6.20479 38.2354 6.86322 38.8938 6.86322 39.7059C6.86322 40.5181 6.20479 41.1765 5.39264 41.1765Z" fill="white"/>
<path d="M5.39127 36.2749C5.17029 36.2749 4.94588 36.2249 4.7348 36.1193L0.813239 34.1585C0.0867694 33.7954 -0.207642 32.9119 0.155593 32.1856C0.518827 31.4592 1.40196 31.1646 2.12853 31.5279L6.05009 33.4887C6.77656 33.8519 7.07097 34.7353 6.70774 35.4617C6.45009 35.977 5.93078 36.2749 5.39127 36.2749Z" fill="white"/>
<path d="M0.813239 45.2534L4.7348 43.2926C5.46088 42.9295 6.34441 43.2239 6.70774 43.9503C7.07097 44.6766 6.77656 45.5601 6.05009 45.9232L2.12853 47.884C1.91745 47.9896 1.69314 48.0396 1.47206 48.0396C0.932651 48.0396 0.413239 47.7416 0.155593 47.2263C-0.207642 46.5 0.0867694 45.6165 0.813239 45.2534Z" fill="white"/>
<path d="M11.4706 32.353H14.9017V47.0589H11.4706C10.6584 47.0589 10 46.4005 10 45.5883V33.8236C10 33.0115 10.6584 32.353 11.4706 32.353Z" fill="white"/>
<path d="M48.0435 7.1482L33.561 4.59457L34.1569 1.21527C34.2247 0.831149 34.4422 0.489679 34.7617 0.265954C35.0812 0.0421305 35.4767 -0.0453203 35.8605 0.0223267L47.4465 2.06526C48.2463 2.20625 48.7804 2.96909 48.6394 3.76889L48.0435 7.1482Z" fill="white"/>
<path d="M17.8428 30.8824V48.5294C17.8428 49.3416 18.5012 50 19.3134 50H42.2396C42.9532 50 43.5639 49.4876 43.6878 48.7847L45.3215 39.5202L36.1495 37.903C35.7654 37.8352 35.4239 37.6177 35.2002 37.2982C34.9765 36.9787 34.8888 36.5835 34.9566 36.1994L38.3614 16.8895C38.5024 16.0898 39.2647 15.5555 40.065 15.6966L49.237 17.3138L50.1734 12.0036C50.3144 11.2038 49.7803 10.4411 48.9805 10.3L31.6015 7.23568C31.2175 7.16804 30.8223 7.25568 30.5027 7.47931C30.1831 7.70294 29.9656 8.04451 29.8979 8.42862L26.198 29.4118H19.3134C18.5012 29.4118 17.8428 30.0703 17.8428 30.8824ZM29.6078 42.6471C29.6078 41.8349 30.2662 41.1765 31.0783 41.1765C31.8905 41.1765 32.5489 41.8349 32.5489 42.6471C32.5489 43.4593 31.8905 44.1177 31.0783 44.1177C30.2662 44.1177 29.6078 43.4593 29.6078 42.6471ZM23.7254 42.6471C23.7254 41.8349 24.3838 41.1765 25.196 41.1765C26.0082 41.1765 26.6666 41.8349 26.6666 42.6471C26.6666 43.4593 26.0082 44.1177 25.196 44.1177C24.3838 44.1177 23.7254 43.4593 23.7254 42.6471Z" fill="white"/>
<path d="M38.1255 35.2637L41.0255 18.8471L48.7508 20.2118L45.8508 36.6283L38.1255 35.2637Z" fill="white"/>
</svg>
