<svg width="43" height="50" viewBox="0 0 43 50" fill="none" xmlns="http://www.w3.org/2000/svg">
<path d="M32.0616 38.0973C30.9943 39.3369 28.9221 42.6186 28.6947 45.6772C28.5309 47.8813 30.1141 49.9195 32.3229 49.9976C34.472 50.0736 36.2444 48.3474 36.2444 46.2152C36.2444 42.8877 33.9323 39.3759 32.832 38.0935C32.6283 37.8561 32.2657 37.8603 32.0616 38.0973ZM34.1271 46.2152C34.1271 45.9672 34.3284 45.7661 34.5762 45.7661C34.824 45.7661 35.0253 45.9672 35.0253 46.2152C35.0253 47.6302 33.8744 48.7813 32.4594 48.7813C32.2116 48.7813 32.0103 48.5803 32.0103 48.3322C32.0103 48.0842 32.2116 47.8832 32.4594 47.8832C33.3788 47.8832 34.1271 47.1349 34.1271 46.2152Z" fill="white"/>
<path d="M12.3958 0.28472C12.3723 0.128083 12.2377 0.012207 12.0793 0.012207H9.00076C8.84221 0.012207 8.70751 0.12819 8.68395 0.284969L7.31481 9.39659C7.26879 9.70284 7.50596 9.97831 7.81564 9.97831H13.8518L12.3958 0.28472Z" fill="white"/>
<path d="M3.1276 13.3818H5.30378H15.7756H18.2718V10.8765H14.373H6.70593H3.12762C2.95089 10.8765 2.80762 11.0197 2.80762 11.1965V13.0618C2.80762 13.2385 2.95088 13.3818 3.1276 13.3818Z" fill="white"/>
<path d="M15.3266 17.8977V14.28H6.25939C5.97969 14.28 5.75293 14.5068 5.75293 14.7865V17.3912C5.75293 17.6709 5.97967 17.8977 6.25939 17.8977L15.3266 17.8977Z" fill="white"/>
<path d="M18.2718 19.1157C18.2718 18.9389 18.1285 18.7957 17.9518 18.7957H15.7756H5.3038H3.12762C2.95089 18.7957 2.80762 18.9389 2.80762 19.1157V22.9541C2.80762 23.2338 3.03436 23.4606 3.31408 23.4606H18.2718V19.1157H18.2718Z" fill="white"/>
<path d="M0 47.7081C0 48.9739 1.02611 50 2.29189 50H18.7872C20.0533 50 21.0796 48.9737 21.0796 47.7076V45.6781C21.0796 45.3984 20.8529 45.1716 20.5731 45.1716H0.50646C0.226758 45.1716 0 45.3984 0 45.6781V47.7081Z" fill="white"/>
<path d="M10.5396 38.1643C7.5926 38.1643 5.17302 35.8827 4.94286 32.9939H0.50646C0.226758 32.9939 0 33.2207 0 33.5004V43.7669C0 44.0466 0.22674 44.2734 0.50646 44.2734H20.5732C20.8529 44.2734 21.0796 44.0467 21.0796 43.7669V33.5004C21.0796 33.2207 20.8529 32.9939 20.5732 32.9939H16.1367C15.9065 35.8827 13.4865 38.1643 10.5396 38.1643Z" fill="white"/>
<path d="M10.5397 37.2661C13.1431 37.2661 15.2614 35.1483 15.2614 32.5448C15.2614 29.9413 13.1431 27.8235 10.5397 27.8235C7.93617 27.8235 5.81836 29.9413 5.81836 32.5448C5.81836 35.1483 7.93617 37.2661 10.5397 37.2661Z" fill="white"/>
<path d="M18.7875 24.3589H18.721H2.35866H2.29239C1.02633 24.3589 0 25.3852 0 26.6513V31.5894C0 31.8691 0.22674 32.0959 0.50646 32.0959H4.94288C5.17304 29.2071 7.59261 26.9255 10.5396 26.9255C13.4865 26.9255 15.9065 29.2071 16.1367 32.0959H20.5732C20.8529 32.0959 21.0796 31.8692 21.0796 31.5894V26.651C21.0796 25.3851 20.0534 24.3589 18.7875 24.3589Z" fill="white"/>
<path d="M39.5615 22.2423C38.1129 20.5921 36.3101 18.5386 34.7438 15.0968C32.9262 11.1045 31.3262 8.98347 30.0408 7.27939C28.4226 5.13486 27.3907 3.7668 27.3588 0.518975C27.3561 0.240389 27.1369 0.0136841 26.8583 0.0155611C24.6209 0.0305945 13.1168 -0.00237683 13.1172 0.00013759C13.7634 4.3488 14.6706 9.59798 14.7158 9.90341L19.1333 9.85999L19.1946 14.2894L16.3663 14.2847L16.3997 17.9096L19.2447 17.915L19.3218 23.4859C20.883 23.6739 21.9477 24.9921 21.975 26.5965C21.9974 26.7218 22.2737 28.1508 23.1796 29.4407C23.4663 29.8489 24.1268 29.6155 24.0908 29.1179C24.082 28.9974 24.0776 28.8757 24.0776 28.753C24.0776 25.9613 26.3492 23.69 29.1411 23.69C29.9978 23.69 30.8445 23.9081 31.5898 24.3205C31.8065 24.4407 31.8851 24.714 31.7649 24.9309C31.6457 25.1482 31.3727 25.2261 31.1546 25.1064C30.5423 24.7671 29.8459 24.5881 29.1411 24.5881C26.5808 24.5881 24.5526 26.9097 25.0518 29.5582C25.2826 30.7829 26.0719 31.8638 27.1789 32.4362C28.53 33.1349 30.0692 33.0514 31.2743 32.3311C31.2965 32.3189 31.7109 32.094 32.3491 31.4928C32.6356 31.2229 32.516 30.7482 32.1398 30.6323C30.7404 30.2011 29.523 30.4316 29.0764 30.9583C28.9151 31.1468 28.6322 31.1695 28.4433 31.0098C28.2544 30.849 28.2316 30.5657 28.3919 30.3767C29.3637 29.2332 31.9781 29.0943 34.3229 30.7096L34.4965 30.8295C35.4372 31.4809 36.3255 32.0959 37.4413 32.0959C39.7861 32.0959 42.0785 29.1138 42.0785 26.8879C42.0785 25.1094 41.023 23.9068 39.5615 22.2423Z" fill="white"/>
</svg>
