<svg width="48" height="47" viewBox="0 0 48 47" fill="none" xmlns="http://www.w3.org/2000/svg">
<path d="M22.7564 13.3056C23.3955 13.3065 24.0088 13.0535 24.4615 12.6023C24.9141 12.1511 25.169 11.5386 25.1701 10.8995C24.7024 6.04017 20.8172 6.0309 20.3504 10.8995C20.351 11.5374 20.6047 12.1491 21.0558 12.6001C21.5069 13.0512 22.1185 13.3049 22.7564 13.3056ZM19.618 20.2988C19.9339 20.299 20.2468 20.237 20.5387 20.1162C20.8306 19.9954 21.0959 19.8182 21.3192 19.5948C21.5426 19.3715 21.7198 19.1062 21.8406 18.8143C21.9614 18.5224 22.0235 18.2095 22.0232 17.8936C21.5665 13.0309 17.6746 13.0309 17.2119 17.8936C17.2117 18.2096 17.2738 18.5225 17.3946 18.8145C17.5155 19.1065 17.6927 19.3717 17.9162 19.5951C18.1397 19.8185 18.405 19.9957 18.697 20.1164C18.989 20.2372 19.302 20.2992 19.618 20.2988ZM44.4702 14.9304C40.117 13.2839 35.312 13.2866 30.9607 14.938C30.1388 15.3721 29.4509 16.0221 28.971 16.818C28.491 17.614 28.2372 18.5258 28.2369 19.4552V23.9556L29.8297 22.6889C30.594 21.8443 31.6597 21.3341 32.7969 21.2685C33.9341 21.2029 35.0514 21.5872 35.9077 22.3383C36.3674 22.7511 36.7268 23.2633 36.9586 23.8359C37.0135 23.8226 37.07 23.8172 37.1263 23.8199C38.2327 23.8738 39.3413 23.7828 40.4241 23.5494C40.631 23.505 40.8472 23.5447 41.0249 23.6596C41.2026 23.7746 41.3274 23.9555 41.3717 24.1625C41.4161 24.3694 41.3764 24.5856 41.2615 24.7633C41.1465 24.941 40.9656 25.0658 40.7586 25.1101C39.6207 25.3558 38.4567 25.4602 37.2932 25.4211C37.2988 26.3008 37.0256 27.1596 36.5128 27.8744C37.9839 27.9537 39.4592 27.8897 40.9179 27.6831L42.0641 27.5162C42.1692 27.4975 42.277 27.5 42.3811 27.5237C42.4852 27.5473 42.5835 27.5917 42.6701 27.6541C42.7568 27.7165 42.83 27.7956 42.8855 27.8868C42.9409 27.9781 42.9775 28.0795 42.993 28.1851C43.0086 28.2908 43.0027 28.3984 42.9758 28.5017C42.949 28.6051 42.9016 28.702 42.8366 28.7866C42.7716 28.8713 42.6902 28.9421 42.5973 28.9947C42.5044 29.0473 42.4019 29.0808 42.2958 29.093L41.1413 29.2607C39.1826 29.5367 37.1978 29.5741 35.2301 29.372C34.2947 30.4381 30.7113 34.5314 29.8297 35.5216C29.3739 36.0746 28.8368 36.5554 28.2369 36.9476V41.4563C28.4417 46.7151 33.6441 46.9284 37.7154 47C41.7792 46.9343 47.0052 46.6975 47.1948 41.4563V19.4544C47.1927 18.5243 46.9381 17.6123 46.4583 16.8155C45.9784 16.0188 45.2913 15.3673 44.4702 14.9304ZM42.2562 37.5611C42.2566 37.6658 42.2362 37.7695 42.1963 37.8663C42.1564 37.963 42.0977 38.051 42.0237 38.125C41.9497 38.199 41.8618 38.2576 41.765 38.2976C41.6682 38.3375 41.5645 38.3578 41.4598 38.3575H39.6673V40.1576C39.6666 40.3686 39.5825 40.5708 39.4333 40.72C39.284 40.8693 39.0819 40.9534 38.8709 40.954H36.2659C36.0549 40.9534 35.8527 40.8693 35.7035 40.72C35.5543 40.5708 35.4701 40.3686 35.4695 40.1576V38.3575H33.6769C33.4659 38.3568 33.2637 38.2727 33.1145 38.1235C32.9653 37.9743 32.8812 37.7721 32.8805 37.5611V34.9637C32.8802 34.859 32.9006 34.7553 32.9405 34.6585C32.9804 34.5618 33.039 34.4738 33.113 34.3998C33.1871 34.3258 33.275 34.2671 33.3718 34.2272C33.4685 34.1873 33.5722 34.167 33.6769 34.1673H35.4695V32.3672C35.4701 32.1561 35.5543 31.954 35.7035 31.8047C35.8527 31.6555 36.0549 31.5714 36.2659 31.5707H38.87C39.0812 31.5712 39.2836 31.6552 39.433 31.8044C39.5824 31.9537 39.6666 32.156 39.6673 32.3672V34.1673H41.4598C41.5647 34.1663 41.6687 34.1862 41.7658 34.2258C41.8629 34.2655 41.9511 34.3241 42.0252 34.3983C42.0994 34.4725 42.158 34.5606 42.1977 34.6577C42.2373 34.7548 42.2572 34.8588 42.2562 34.9637V37.5611ZM35.5327 7.88075C34.0157 8.00127 32.4212 8.81116 32.4423 10.5413V12.7637C35.9037 11.9131 39.5196 11.9131 42.981 12.7637C42.9903 10.3003 43.3434 8.44372 40.2968 7.94396C38.7264 7.62776 37.1109 7.60632 35.5327 7.88075ZM28.2841 4.63023L34.4025 4.84597V6.4784C36.5818 5.96955 38.8486 5.96667 41.0292 6.46997V3.42761C41.0272 2.51848 40.6645 1.6473 40.0208 1.00532C39.377 0.363342 38.5049 0.00302514 37.5958 0.00347388H29.3915C26.7368 -0.139795 25.1355 4.19368 28.2841 4.63107V4.63023ZM26.7157 25.1658L26.6432 25.1186V25.2222L26.7157 25.1658Z" fill="#7AB741"/>
<path d="M35.0629 27.1496C35.4767 26.6589 35.6945 26.0326 35.6743 25.391C35.6541 24.7494 35.3973 24.138 34.9534 23.6743C34.5096 23.2107 33.9099 22.9275 33.2698 22.8794C32.6297 22.8313 31.9944 23.0216 31.4862 23.4137C30.4833 24.2033 28.8728 25.4885 27.8775 26.2816C28.322 26.9228 28.5822 27.6735 28.6299 28.4523C28.6775 29.231 28.5108 30.0079 28.1478 30.6985C27.7848 31.3891 27.2395 31.967 26.571 32.3694C25.9026 32.7717 25.1366 32.9832 24.3565 32.9807L20.4309 32.888C20.2197 32.8829 20.0191 32.7942 19.8733 32.6413C19.7275 32.4884 19.6484 32.2838 19.6534 32.0726C19.6585 31.8614 19.7472 31.6608 19.9001 31.515C20.053 31.3692 20.2576 31.2901 20.4688 31.2952L24.3565 31.3879C24.9783 31.3931 25.5823 31.1805 26.0637 30.7869C26.5451 30.3933 26.8735 29.8435 26.9918 29.233C27.1102 28.6226 27.011 27.9899 26.7116 27.445C26.4121 26.9 25.9313 26.477 25.3526 26.2495C24.7837 25.9546 21.9066 26.0743 21.25 26.0102C20.692 25.9787 20.1528 25.7973 19.6893 25.4852C17.9481 24.4739 15.5808 24.9542 13.6188 24.784C12.778 24.7597 11.9499 24.9932 11.2456 25.4531L6.58517 29.388C8.68449 31.816 11.217 35.0935 13.0778 37.6883C13.939 36.8711 15.0763 36.4078 16.2634 36.3905L24.0699 36.5734C24.9034 36.5926 25.731 36.4292 26.4948 36.0948C27.2585 35.7604 27.9398 35.2631 28.491 34.6375C29.483 33.5108 33.9825 28.3792 35.0629 27.1496ZM38.0741 34.9637V33.1636H37.0628V34.9637C37.0632 35.0685 37.0429 35.1724 37.003 35.2693C36.9631 35.3662 36.9044 35.4543 36.8302 35.5284C36.7561 35.6025 36.6681 35.6613 36.5711 35.7012C36.4742 35.7411 36.3703 35.7614 36.2655 35.7609H34.473V36.7638H36.2655C36.3703 36.7635 36.474 36.7839 36.5709 36.8238C36.6677 36.8638 36.7557 36.9225 36.8297 36.9966C36.9037 37.0707 36.9624 37.1588 37.0022 37.2557C37.0421 37.3525 37.0624 37.4563 37.0619 37.5611V39.3612H38.0732V37.5611C38.0737 37.3498 38.1578 37.1472 38.3072 36.9978C38.4566 36.8484 38.6592 36.7643 38.8705 36.7638H40.6622V35.7609H38.8705C38.6593 35.7603 38.457 35.676 38.3078 35.5266C38.1585 35.3773 38.0745 35.1749 38.0741 34.9637ZM7.29393 32.7337C6.51354 31.8092 5.55532 30.0807 4.21196 29.9299C1.4772 29.3164 -1.29295 32.8079 0.651296 35.1634L6.06772 42.1246C8.59768 45.365 13.9054 41.1976 11.3645 37.9673L7.29393 32.7337Z" fill="#7AB741"/>
</svg>
