<svg width="47" height="47" viewBox="0 0 47 47" fill="none" xmlns="http://www.w3.org/2000/svg">
<path d="M43.322 3.62311C38.4885 -1.2077 30.6264 -1.2077 25.7929 3.62311L15.5735 13.8425L27.1761 25.4451C29.5641 23.4565 32.5917 22.2113 35.9346 22.2113C37.8521 22.2113 39.6767 22.6096 41.337 23.3209L43.322 21.1523C48.1541 16.3201 48.1541 8.45667 43.322 3.62311ZM25.2448 27.4085L13.6261 15.7899L3.62407 25.8017C-1.20802 30.6338 -1.20802 38.4973 3.62407 43.3308C8.45745 48.1613 16.4114 48.2534 21.2449 43.4225L23.2725 41.3851C22.5613 39.7249 22.163 37.9002 22.163 35.9828C22.1631 32.7256 23.3473 29.769 25.2448 27.4085ZM24.9174 35.9829C24.9174 41.5957 29.1302 46.1765 34.5574 46.8612V25.1045C29.1302 25.7892 24.9174 30.3698 24.9174 35.9829ZM37.3117 25.1045V46.8612C42.7389 46.1765 46.9517 41.5957 46.9517 35.9828C46.9517 30.3699 42.739 25.7892 37.3117 25.1045Z" fill="#7AB741"/>
</svg>
