<svg width="36" height="36" viewBox="0 0 36 36" fill="none" xmlns="http://www.w3.org/2000/svg">
<path d="M17.9989 3.27264C9.87864 3.27264 3.27197 9.87931 3.27197 17.9996C3.27197 20.2962 3.78496 22.4913 4.79785 24.5253C4.89562 24.7177 5.06552 24.8638 5.27051 24.9315C5.47551 24.9993 5.69897 24.9833 5.89221 24.887C6.08545 24.7907 6.23279 24.6219 6.30213 24.4175C6.37146 24.213 6.35717 23.9894 6.26236 23.7955C5.4851 22.2344 5.06048 20.5604 4.95493 18.8177H6.54544C6.76243 18.8177 6.97054 18.7315 7.12397 18.5781C7.27741 18.4247 7.36361 18.2166 7.36361 17.9996C7.36361 17.7826 7.27741 17.5745 7.12397 17.4211C6.97054 17.2676 6.76243 17.1814 6.54544 17.1814H4.95084C5.05712 15.4423 5.51262 13.7425 6.29018 12.1833L6.96353 12.5719C7.05649 12.6259 7.15922 12.6611 7.26581 12.6753C7.3724 12.6895 7.48074 12.6824 7.58461 12.6546C7.68848 12.6268 7.78582 12.5787 7.87103 12.5131C7.95624 12.4475 8.02765 12.3657 8.08114 12.2724C8.18963 12.0845 8.21903 11.8612 8.16287 11.6516C8.10671 11.442 7.9696 11.2633 7.78169 11.1548L7.10179 10.7629C8.06803 9.31234 9.31248 8.06788 10.7631 7.10165L11.155 7.78154C11.2083 7.87534 11.2797 7.95766 11.3649 8.02377C11.4502 8.08988 11.5477 8.13847 11.6519 8.16674C11.756 8.19501 11.8647 8.20241 11.9717 8.1885C12.0787 8.17459 12.1819 8.13966 12.2753 8.08571C12.3688 8.03175 12.4506 7.95985 12.5161 7.87414C12.5817 7.78843 12.6296 7.6906 12.6572 7.58628C12.6848 7.48197 12.6915 7.37323 12.6768 7.26632C12.6622 7.15942 12.6266 7.05646 12.572 6.96338L12.1834 6.29003C13.7427 5.51283 15.4425 5.05734 17.1816 4.9507V6.5453C17.1816 6.76229 17.2678 6.97039 17.4212 7.12383C17.5746 7.27726 17.7827 7.36346 17.9997 7.36346C18.2167 7.36346 18.4248 7.27726 18.5783 7.12383C18.7317 6.97039 18.8179 6.76229 18.8179 6.5453V4.9507C20.6048 5.06197 22.2926 5.52996 23.8161 6.29003L23.4274 6.96338C23.3206 7.15119 23.2925 7.37362 23.3491 7.58213C23.4057 7.79063 23.5425 7.96828 23.7296 8.07631C23.9167 8.18433 24.1389 8.21397 24.3478 8.15875C24.5567 8.10352 24.7352 7.96792 24.8445 7.78154L25.2364 7.10165C26.687 8.06788 27.9314 9.31234 28.8977 10.7629L28.2178 11.1548C28.0314 11.2641 27.8958 11.4426 27.8406 11.6515C27.7853 11.8604 27.815 12.0826 27.923 12.2697C28.031 12.4568 28.2087 12.5936 28.4172 12.6502C28.6257 12.7068 28.8481 12.6787 29.0359 12.5719L29.7093 12.1833C30.4865 13.7426 30.942 15.4424 31.0486 17.1814H29.454C29.237 17.1814 29.0289 17.2676 28.8755 17.4211C28.722 17.5745 28.6359 17.7826 28.6359 17.9996C28.6359 18.2166 28.722 18.4247 28.8755 18.5781C29.0289 18.7315 29.237 18.8177 29.454 18.8177H31.0658C30.9526 20.7075 30.4277 22.5497 29.5276 24.2152C29.4755 24.3099 29.4426 24.4141 29.431 24.5216C29.4193 24.6292 29.4291 24.7379 29.4598 24.8417C29.4905 24.9454 29.5414 25.042 29.6096 25.1259C29.6779 25.2098 29.7621 25.2794 29.8574 25.3306C29.9527 25.3817 30.0572 25.4135 30.1648 25.424C30.2725 25.4345 30.3811 25.4236 30.4845 25.3918C30.5879 25.3601 30.684 25.3082 30.7672 25.239C30.8504 25.1699 30.9191 25.085 30.9693 24.9892C32.1298 22.8427 32.7343 20.4397 32.7275 17.9996C32.7275 9.87931 26.1208 3.27264 18.0005 3.27264H17.9989ZM9.81728 26.9994H7.36279C7.1458 26.9994 6.9377 27.0856 6.78426 27.239C6.63082 27.3924 6.54463 27.6006 6.54463 27.8175C6.54463 28.0345 6.63082 28.2426 6.78426 28.3961C6.9377 28.5495 7.1458 28.6357 7.36279 28.6357H9.81728V30.272H8.18095C7.27852 30.272 6.54463 31.0059 6.54463 31.9084V33.5447C6.54463 34.4471 7.27852 35.181 8.18095 35.181H10.6354C10.8524 35.181 11.0605 35.0948 11.214 34.9414C11.3674 34.7879 11.4536 34.5798 11.4536 34.3628C11.4536 34.1459 11.3674 33.9378 11.214 33.7843C11.0605 33.6309 10.8524 33.5447 10.6354 33.5447H8.18095V31.9084H9.81728C10.7197 31.9084 11.4536 31.1745 11.4536 30.272V28.6357C11.4536 27.7333 10.7197 26.9994 9.81728 26.9994ZM17.1807 26.9994C16.9638 26.9994 16.7557 27.0856 16.6022 27.239C16.4488 27.3924 16.3626 27.6006 16.3626 27.8175V30.272H14.7263V27.8175C14.7263 27.6006 14.6401 27.3924 14.4866 27.239C14.3332 27.0856 14.1251 26.9994 13.9081 26.9994C13.6911 26.9994 13.483 27.0856 13.3296 27.239C13.1761 27.3924 13.0899 27.6006 13.0899 27.8175V30.272C13.0899 31.1745 13.8238 31.9084 14.7263 31.9084H16.3626V34.3628C16.3626 34.5798 16.4488 34.7879 16.6022 34.9414C16.7557 35.0948 16.9638 35.181 17.1807 35.181C17.3977 35.181 17.6058 35.0948 17.7593 34.9414C17.9127 34.7879 17.9989 34.5798 17.9989 34.3628V27.8175C17.9989 27.6006 17.9127 27.3924 17.7593 27.239C17.6058 27.0856 17.3977 26.9994 17.1807 26.9994ZM27.4544 26.9994H25.3624C25.1454 26.9994 24.9373 27.0856 24.7838 27.239C24.6304 27.3924 24.5442 27.6006 24.5442 27.8175C24.5442 28.0345 24.6304 28.2426 24.7838 28.3961C24.9373 28.5495 25.1454 28.6357 25.3624 28.6357H27.4544L25.4147 34.0757C25.3478 34.2767 25.3614 34.4958 25.4526 34.6871C25.5438 34.8783 25.7056 35.0267 25.904 35.1012C26.1023 35.1756 26.3218 35.1703 26.5164 35.0863C26.7109 35.0024 26.8653 34.8463 26.9472 34.6508L28.9868 29.2109C29.0794 28.9633 29.1107 28.697 29.078 28.4347C29.0453 28.1724 28.9495 27.9219 28.7989 27.7047C28.6483 27.4874 28.4474 27.3099 28.2133 27.1872C27.9791 27.0645 27.7188 26.9995 27.4544 26.9994ZM22.2501 26.1976C22.1447 26.1762 22.0362 26.1759 21.9307 26.1966C21.8252 26.2174 21.7248 26.2587 21.6354 26.3183C21.5459 26.3779 21.4691 26.4546 21.4093 26.5439C21.3496 26.6333 21.308 26.7336 21.2871 26.839L19.6508 35.0207C19.6269 35.1394 19.6297 35.262 19.659 35.3796C19.6883 35.4971 19.7433 35.6067 19.8201 35.7004C19.8969 35.7941 19.9936 35.8696 20.1031 35.9214C20.2126 35.9732 20.3322 36.0001 20.4534 36C20.6423 35.9997 20.8253 35.934 20.9713 35.8141C21.1173 35.6942 21.2174 35.5275 21.2544 35.3422L22.8907 27.1606C22.9333 26.9478 22.8897 26.7268 22.7694 26.5462C22.6491 26.3656 22.4628 26.2402 22.2501 26.1976Z" fill="#176E9E"/>
<path d="M20.4542 17.9996C20.4525 17.4936 20.2944 17.0006 20.0014 16.5881C19.7085 16.1756 19.295 15.8638 18.8178 15.6956V9.81795C18.8178 9.60096 18.7316 9.39286 18.5782 9.23942C18.4248 9.08599 18.2167 8.99979 17.9997 8.99979C17.7827 8.99979 17.5746 9.08599 17.4211 9.23942C17.2677 9.39286 17.1815 9.60096 17.1815 9.81795V15.6956C16.7043 15.8638 16.2909 16.1756 15.9979 16.5881C15.705 17.0006 15.5468 17.4936 15.5452 17.9996C15.5452 18.3776 15.6376 18.731 15.7915 19.0509L13.3304 21.512C13.177 21.6654 13.0908 21.8734 13.0908 22.0904C13.0908 22.3074 13.177 22.5154 13.3304 22.6688C13.4838 22.8223 13.6919 22.9084 13.9089 22.9084C14.1258 22.9084 14.3339 22.8223 14.4873 22.6688L16.9483 20.2078C17.2682 20.3608 17.6225 20.4541 17.9997 20.4541C19.3529 20.4541 20.4542 19.3528 20.4542 17.9996ZM17.9997 18.8177C17.5489 18.8177 17.1815 18.4504 17.1815 17.9996C17.1815 17.5488 17.5489 17.1814 17.9997 17.1814C18.4505 17.1814 18.8178 17.5488 18.8178 17.9996C18.8178 18.4504 18.4505 18.8177 17.9997 18.8177Z" fill="#176E9E"/>
<path d="M17.9996 0C8.07445 0 0 8.07445 0 17.9996C0 21.3156 0.904888 24.5457 2.61812 27.3471C2.6854 27.485 2.79014 27.6012 2.92036 27.6824C3.05058 27.7635 3.20102 27.8064 3.35447 27.8061C3.50021 27.8052 3.6431 27.7656 3.7685 27.6914C3.89391 27.6171 3.99733 27.5109 4.06817 27.3835C4.13901 27.2562 4.17473 27.1123 4.17166 26.9666C4.1686 26.8209 4.12686 26.6786 4.05073 26.5543C2.46726 23.9825 1.63123 21.0206 1.63633 18.0004C1.63633 8.97689 8.97689 1.63633 17.9996 1.63633C27.0223 1.63633 34.3629 8.97689 34.3629 17.9996C34.3629 21.269 33.3982 24.4263 31.5737 27.1311C31.5115 27.2201 31.4677 27.3206 31.4447 27.4268C31.4217 27.5329 31.4201 27.6425 31.44 27.7493C31.4598 27.8561 31.5007 27.9578 31.5603 28.0486C31.6199 28.1394 31.6969 28.2174 31.7869 28.2781C31.877 28.3388 31.9782 28.381 32.0847 28.4022C32.1912 28.4234 32.3009 28.4232 32.4073 28.4016C32.5137 28.3799 32.6147 28.3373 32.7045 28.2763C32.7943 28.2152 32.871 28.1369 32.9302 28.0458C34.9352 25.0795 36.0042 21.5799 35.9992 17.9996C35.9992 8.07445 27.9247 0 17.9996 0Z" fill="#176E9E"/>
</svg>
